<svg xmlns="http://www.w3.org/2000/svg" width="30" height="30" viewBox="0 0 30 30" fill="none">
  <path d="M2.89116 10.5923C2.89116 11.4039 3.0638 12.2124 3.39324 13.0125C3.72889 13.8276 4.30533 14.7186 5.08186 15.6789L5.0821 15.6792C5.86282 16.6438 6.91122 17.7545 8.21729 19.0083C9.52183 20.2607 11.1783 21.7651 13.184 23.52L13.7517 24.0168L14.3167 23.517C14.8542 23.0415 15.4861 22.4925 16.2129 21.8695C16.6524 21.4928 17.0422 21.1512 17.3814 20.8452L17.6898 21.1536L17.9396 21.4033C17.6242 21.683 17.2691 21.9942 16.874 22.3373C16.1643 22.9534 15.5374 23.5017 14.9935 23.982L14.9935 23.982L14.9887 23.9863L13.7489 25.0978L10.3544 22.0508C10.3541 22.0505 10.3538 22.0502 10.3535 22.0499C8.86061 20.7022 7.58433 19.5034 6.52307 18.4529C5.47203 17.4125 4.61711 16.445 3.95153 15.5504C3.29111 14.6628 2.82553 13.8281 2.53664 13.0463C2.24952 12.2693 2.1053 11.4537 2.10604 10.5943V10.5935C2.10604 8.84871 2.6814 7.44212 3.82133 6.31087C4.9629 5.178 6.37647 4.60646 8.12323 4.6072H8.1236C9.08157 4.6072 9.9887 4.80887 10.8538 5.21384C11.7203 5.61942 12.4656 6.1893 13.0953 6.93008L13.7486 7.69869L14.4019 6.93008C15.0316 6.1893 15.7769 5.61942 16.6434 5.21384C17.5085 4.80887 18.4156 4.6072 19.3736 4.6072C20.8901 4.6072 22.1057 5.02846 23.0772 5.8318C23.7826 6.4151 24.3292 7.09963 24.7207 7.89231H23.8345C23.4043 7.14814 22.8201 6.55308 22.0803 6.13029C21.2297 5.64426 20.3236 5.39231 19.3736 5.39231C18.1473 5.39231 17.0463 5.72672 16.1119 6.42175C15.362 6.97947 14.6707 7.68161 14.034 8.51731H13.4695C12.8363 7.67198 12.1196 6.9644 11.3161 6.40486C10.3528 5.73407 9.28164 5.39141 8.1233 5.39231C6.71445 5.39238 5.47703 5.88963 4.45369 6.86368C3.41017 7.85693 2.89031 9.12118 2.89116 10.5923ZM2.89116 10.5923H3.7486L2.89116 10.5928C2.89116 10.5926 2.89116 10.5924 2.89116 10.5923ZM24.1412 17.4998V20.3923H23.356V17.4998V16.6423H22.4986H19.606V15.8572H22.4986H23.356V14.9998V12.1072H24.1412V14.9998V15.8572H24.9986H27.8912V16.6423H24.9986H24.1412V17.4998Z" fill="#7B7167"/>
  <path d="M2.89116 10.5923C2.89116 11.4039 3.0638 12.2124 3.39324 13.0125C3.72889 13.8276 4.30533 14.7186 5.08186 15.6789L5.0821 15.6792C5.86282 16.6438 6.91122 17.7545 8.21729 19.0083C9.52183 20.2607 11.1783 21.7651 13.184 23.52L13.7517 24.0168L14.3167 23.517C14.8542 23.0415 15.4861 22.4925 16.2129 21.8695C16.6524 21.4928 17.0422 21.1512 17.3814 20.8452L17.6898 21.1536L17.9396 21.4033C17.6242 21.683 17.2691 21.9942 16.874 22.3373C16.1643 22.9534 15.5374 23.5017 14.9935 23.982L14.9935 23.982L14.9887 23.9863L13.7489 25.0978L10.3544 22.0508C10.3541 22.0505 10.3538 22.0502 10.3535 22.0499C8.86061 20.7022 7.58433 19.5034 6.52307 18.4529C5.47203 17.4125 4.61711 16.445 3.95153 15.5504C3.29111 14.6628 2.82553 13.8281 2.53664 13.0463C2.24952 12.2693 2.1053 11.4537 2.10604 10.5943V10.5935C2.10604 8.84871 2.6814 7.44212 3.82133 6.31087C4.9629 5.178 6.37647 4.60646 8.12323 4.6072H8.1236C9.08157 4.6072 9.9887 4.80887 10.8538 5.21384C11.7203 5.61942 12.4656 6.1893 13.0953 6.93008L13.7486 7.69869L14.4019 6.93008C15.0316 6.1893 15.7769 5.61942 16.6434 5.21384C17.5085 4.80887 18.4156 4.6072 19.3736 4.6072C20.8901 4.6072 22.1057 5.02846 23.0772 5.8318C23.7826 6.4151 24.3292 7.09963 24.7207 7.89231H23.8345C23.4043 7.14814 22.8201 6.55308 22.0803 6.13029C21.2297 5.64426 20.3236 5.39231 19.3736 5.39231C18.1473 5.39231 17.0463 5.72672 16.1119 6.42175C15.362 6.97947 14.6707 7.68161 14.034 8.51731H13.4695C12.8363 7.67198 12.1196 6.9644 11.3161 6.40486C10.3528 5.73407 9.28164 5.39141 8.1233 5.39231C6.71445 5.39238 5.47703 5.88963 4.45369 6.86368C3.41017 7.85693 2.89031 9.12118 2.89116 10.5923ZM2.89116 10.5923H3.7486L2.89116 10.5928C2.89116 10.5926 2.89116 10.5924 2.89116 10.5923ZM24.1412 17.4998V20.3923H23.356V17.4998V16.6423H22.4986H19.606V15.8572H22.4986H23.356V14.9998V12.1072H24.1412V14.9998V15.8572H24.9986H27.8912V16.6423H24.9986H24.1412V17.4998Z" stroke="#7B7167" stroke-width="1.71489"/>
  <path d="M2.89116 10.5923C2.89116 11.4039 3.0638 12.2124 3.39324 13.0125C3.72889 13.8276 4.30533 14.7186 5.08186 15.6789L5.0821 15.6792C5.86282 16.6438 6.91122 17.7545 8.21729 19.0083C9.52183 20.2607 11.1783 21.7651 13.184 23.52L13.7517 24.0168L14.3167 23.517C14.8542 23.0415 15.4861 22.4925 16.2129 21.8695C16.6524 21.4928 17.0422 21.1512 17.3814 20.8452L17.6898 21.1536L17.9396 21.4033C17.6242 21.683 17.2691 21.9942 16.874 22.3373C16.1643 22.9534 15.5374 23.5017 14.9935 23.982L14.9935 23.982L14.9887 23.9863L13.7489 25.0978L10.3544 22.0508C10.3541 22.0505 10.3538 22.0502 10.3535 22.0499C8.86061 20.7022 7.58433 19.5034 6.52307 18.4529C5.47203 17.4125 4.61711 16.445 3.95153 15.5504C3.29111 14.6628 2.82553 13.8281 2.53664 13.0463C2.24952 12.2693 2.1053 11.4537 2.10604 10.5943V10.5935C2.10604 8.84871 2.6814 7.44212 3.82133 6.31087C4.9629 5.178 6.37647 4.60646 8.12323 4.6072H8.1236C9.08157 4.6072 9.9887 4.80887 10.8538 5.21384C11.7203 5.61942 12.4656 6.1893 13.0953 6.93008L13.7486 7.69869L14.4019 6.93008C15.0316 6.1893 15.7769 5.61942 16.6434 5.21384C17.5085 4.80887 18.4156 4.6072 19.3736 4.6072C20.8901 4.6072 22.1057 5.02846 23.0772 5.8318C23.7826 6.4151 24.3292 7.09963 24.7207 7.89231H23.8345C23.4043 7.14814 22.8201 6.55308 22.0803 6.13029C21.2297 5.64426 20.3236 5.39231 19.3736 5.39231C18.1473 5.39231 17.0463 5.72672 16.1119 6.42175C15.362 6.97947 14.6707 7.68161 14.034 8.51731H13.4695C12.8363 7.67198 12.1196 6.9644 11.3161 6.40486C10.3528 5.73407 9.28164 5.39141 8.1233 5.39231C6.71445 5.39238 5.47703 5.88963 4.45369 6.86368C3.41017 7.85693 2.89031 9.12118 2.89116 10.5923ZM2.89116 10.5923H3.7486L2.89116 10.5928C2.89116 10.5926 2.89116 10.5924 2.89116 10.5923ZM24.1412 17.4998V20.3923H23.356V17.4998V16.6423H22.4986H19.606V15.8572H22.4986H23.356V14.9998V12.1072H24.1412V14.9998V15.8572H24.9986H27.8912V16.6423H24.9986H24.1412V17.4998Z" stroke="black" stroke-opacity="0.2" stroke-width="1.71489"/>
</svg>
