<svg xmlns="http://www.w3.org/2000/svg" width="30" height="30" viewBox="0 0 30 30" fill="none">
  <path d="M8.61989 25.2001C9.24801 25.2001 9.85039 25.4529 10.2945 25.903C10.7387 26.3531 10.9882 26.9635 10.9882 27.6C10.9882 28.2365 10.7387 28.847 10.2945 29.2971C9.85039 29.7471 9.24801 30 8.61989 30C7.99178 30 7.38939 29.7471 6.94525 29.2971C6.5011 28.847 6.25159 28.2365 6.25159 27.6C6.25159 26.9635 6.5011 26.3531 6.94525 25.903C7.38939 25.4529 7.99178 25.2001 8.61989 25.2001ZM22.8297 25.2001C23.4578 25.2001 24.0602 25.4529 24.5044 25.903C24.9485 26.3531 25.198 26.9635 25.198 27.6C25.198 28.2365 24.9485 28.847 24.5044 29.2971C24.0602 29.7471 23.4578 30 22.8297 30C22.2016 30 21.5992 29.7471 21.1551 29.2971C20.7109 28.847 20.4614 28.2365 20.4614 27.6C20.4614 26.9635 20.7109 26.3531 21.1551 25.903C21.5992 25.4529 22.2016 25.2001 22.8297 25.2001Z" fill="black"/>
  <path opacity="0.5" d="M0.0687451 0.802126C0.172848 0.50194 0.390338 0.255941 0.673391 0.118224C0.956443 -0.0194933 1.28188 -0.0376525 1.57815 0.0677391L2.05339 0.237336C3.02755 0.58453 3.8533 0.878924 4.50537 1.20212C5.20007 1.54931 5.79689 1.9749 6.24529 2.64049C6.69053 3.29968 6.87526 4.02447 6.95894 4.81965C6.99683 5.17485 7.01735 5.56844 7.02841 6.00043H23.8244C26.4848 6.00043 28.88 6.00043 29.581 6.92362C30.282 7.8468 30.0073 9.23877 29.4594 12.0211L28.67 15.9011C28.1726 18.3458 27.9248 19.5698 27.0532 20.2882C26.1817 21.0082 24.9502 21.0082 22.4855 21.0082H14.1128C9.70775 21.0082 7.5068 21.0082 6.1395 19.5458C4.7722 18.0834 4.67115 16.5314 4.67115 11.8243V7.6612C4.67115 6.47722 4.67115 5.68524 4.60484 5.07725C4.54169 4.49646 4.43274 4.20526 4.28907 3.99407C4.1517 3.78767 3.94171 3.59408 3.46174 3.35728C2.95176 3.10448 2.25864 2.85489 1.20395 2.4789L0.793446 2.3333C0.646445 2.28123 0.511021 2.20029 0.394928 2.09512C0.278835 1.98995 0.184352 1.8626 0.11689 1.72037C0.0494283 1.57815 0.0103114 1.42383 0.00177895 1.26627C-0.00675347 1.1087 0.0154662 0.950978 0.067166 0.802126H0.0687451Z" fill="black"/>
  <path d="M18.4878 10.8003C18.4878 10.4821 18.3631 10.1768 18.141 9.95181C17.9189 9.72677 17.6177 9.60034 17.3037 9.60034C16.9896 9.60034 16.6884 9.72677 16.4664 9.95181C16.2443 10.1768 16.1195 10.4821 16.1195 10.8003V12.8003H14.1459C13.8319 12.8003 13.5307 12.9267 13.3086 13.1518C13.0866 13.3768 12.9618 13.682 12.9618 14.0003C12.9618 14.3185 13.0866 14.6237 13.3086 14.8488C13.5307 15.0738 13.8319 15.2002 14.1459 15.2002H16.1195V17.2002C16.1195 17.5185 16.2443 17.8237 16.4664 18.0487C16.6884 18.2738 16.9896 18.4002 17.3037 18.4002C17.6177 18.4002 17.9189 18.2738 18.141 18.0487C18.3631 17.8237 18.4878 17.5185 18.4878 17.2002V15.2002H20.4614C20.7755 15.2002 21.0767 15.0738 21.2987 14.8488C21.5208 14.6237 21.6456 14.3185 21.6456 14.0003C21.6456 13.682 21.5208 13.3768 21.2987 13.1518C21.0767 12.9267 20.7755 12.8003 20.4614 12.8003H18.4878V10.8003Z" fill="black"/>
</svg>
