<svg xmlns="http://www.w3.org/2000/svg" width="28" height="28" viewBox="0 0 28 28" fill="none">
<path d="M23.625 5.25H19.6875V3.9375C19.6875 3.12527 19.3648 2.34632 18.7905 1.77199C18.2162 1.19766 17.4372 0.875 16.625 0.875H11.375C10.5628 0.875 9.78382 1.19766 9.20949 1.77199C8.63516 2.34632 8.3125 3.12527 8.3125 3.9375V5.25H4.375C4.0269 5.25 3.69306 5.38828 3.44692 5.63442C3.20078 5.88056 3.0625 6.2144 3.0625 6.5625C3.0625 6.9106 3.20078 7.24444 3.44692 7.49058C3.69306 7.73672 4.0269 7.875 4.375 7.875H4.8125V22.75C4.8125 23.3302 5.04297 23.8866 5.4532 24.2968C5.86344 24.707 6.41984 24.9375 7 24.9375H21C21.5802 24.9375 22.1366 24.707 22.5468 24.2968C22.957 23.8866 23.1875 23.3302 23.1875 22.75V7.875H23.625C23.9731 7.875 24.3069 7.73672 24.5531 7.49058C24.7992 7.24444 24.9375 6.9106 24.9375 6.5625C24.9375 6.2144 24.7992 5.88056 24.5531 5.63442C24.3069 5.38828 23.9731 5.25 23.625 5.25ZM10.9375 3.9375C10.9375 3.82147 10.9836 3.71019 11.0656 3.62814C11.1477 3.54609 11.259 3.5 11.375 3.5H16.625C16.741 3.5 16.8523 3.54609 16.9344 3.62814C17.0164 3.71019 17.0625 3.82147 17.0625 3.9375V5.25H10.9375V3.9375ZM20.5625 22.3125H7.4375V7.875H20.5625V22.3125ZM12.6875 11.375V18.375C12.6875 18.7231 12.5492 19.0569 12.3031 19.3031C12.0569 19.5492 11.7231 19.6875 11.375 19.6875C11.0269 19.6875 10.6931 19.5492 10.4469 19.3031C10.2008 19.0569 10.0625 18.7231 10.0625 18.375V11.375C10.0625 11.0269 10.2008 10.6931 10.4469 10.4469C10.6931 10.2008 11.0269 10.0625 11.375 10.0625C11.7231 10.0625 12.0569 10.2008 12.3031 10.4469C12.5492 10.6931 12.6875 11.0269 12.6875 11.375ZM17.9375 11.375V18.375C17.9375 18.7231 17.7992 19.0569 17.5531 19.3031C17.3069 19.5492 16.9731 19.6875 16.625 19.6875C16.2769 19.6875 15.9431 19.5492 15.6969 19.3031C15.4508 19.0569 15.3125 18.7231 15.3125 18.375V11.375C15.3125 11.0269 15.4508 10.6931 15.6969 10.4469C15.9431 10.2008 16.2769 10.0625 16.625 10.0625C16.9731 10.0625 17.3069 10.2008 17.5531 10.4469C17.7992 10.6931 17.9375 11.0269 17.9375 11.375Z" fill="#625A52"/>
</svg>
