<svg xmlns="http://www.w3.org/2000/svg" width="30" height="30" viewBox="0 0 30 30" fill="none">
  <path fill-rule="evenodd" clip-rule="evenodd" d="M1.57707 0.0677501C1.2806 -0.0376981 0.954928 -0.0194815 0.671708 0.118393C0.388488 0.256267 0.170917 0.502505 0.0668575 0.802936C-0.0372017 1.10337 -0.0192247 1.43338 0.116833 1.72038C0.252892 2.00738 0.495886 2.22786 0.79236 2.33331L1.20445 2.47891C2.25916 2.8549 2.95229 3.10289 3.46227 3.35729C3.94068 3.59569 4.15067 3.78928 4.28962 3.99408C4.43172 4.20527 4.54224 4.49647 4.6054 5.07726C4.66855 5.68525 4.67171 6.47723 4.67171 7.66121V11.8243C4.67171 16.5314 4.77118 18.0834 6.14008 19.5458C7.50741 21.0082 9.70839 21.0082 14.1135 21.0082H22.4848C24.9495 21.0082 26.1826 21.0082 27.0526 20.2882C27.9241 19.5682 28.1736 18.3458 28.6709 15.9011L29.4604 12.0211C30.0083 9.23718 30.2814 7.84681 29.5804 6.92362C28.8793 6.00044 26.4857 6.00044 23.8253 6.00044H7.02742C7.0207 5.60607 6.99805 5.21215 6.95953 4.81966C6.87427 4.02448 6.69112 3.29969 6.24587 2.6405C5.79746 1.97491 5.20064 1.54932 4.50435 1.20213C3.85384 0.878935 3.0265 0.58454 2.0539 0.237347L1.57707 0.0677501ZM14.0977 10.7524C14.3198 10.5276 14.6207 10.4014 14.9345 10.4014C15.2483 10.4014 15.5493 10.5276 15.7713 10.7524L17.3029 12.3043L18.8344 10.7524C18.9428 10.6345 19.0736 10.5399 19.2188 10.4743C19.3641 10.4087 19.5209 10.3735 19.6799 10.3706C19.8389 10.3678 19.9968 10.3974 20.1443 10.4578C20.2917 10.5181 20.4256 10.6079 20.5381 10.7219C20.6505 10.8358 20.7392 10.9716 20.7987 11.121C20.8583 11.2704 20.8876 11.4305 20.8848 11.5916C20.8819 11.7527 20.8471 11.9116 20.7824 12.0588C20.7177 12.206 20.6244 12.3385 20.508 12.4483L18.9765 14.0003L20.508 15.5523C20.6244 15.6621 20.7177 15.7946 20.7824 15.9418C20.8471 16.089 20.8819 16.2479 20.8848 16.409C20.8876 16.5701 20.8583 16.7302 20.7987 16.8796C20.7392 17.029 20.6505 17.1647 20.5381 17.2787C20.4256 17.3926 20.2917 17.4825 20.1443 17.5428C19.9968 17.6032 19.8389 17.6328 19.6799 17.63C19.5209 17.6271 19.3641 17.5919 19.2188 17.5263C19.0736 17.4607 18.9428 17.3661 18.8344 17.2482L17.3029 15.6963L15.7713 17.2482C15.6629 17.3661 15.5322 17.4607 15.3869 17.5263C15.2417 17.5919 15.0849 17.6271 14.9259 17.63C14.7669 17.6328 14.609 17.6032 14.4615 17.5428C14.314 17.4825 14.1801 17.3926 14.0677 17.2787C13.9552 17.1647 13.8666 17.029 13.807 16.8796C13.7475 16.7302 13.7182 16.5701 13.721 16.409C13.7238 16.2479 13.7586 16.089 13.8233 15.9418C13.8881 15.7946 13.9814 15.6621 14.0977 15.5523L15.6292 14.0003L14.0977 12.4483C13.876 12.2233 13.7514 11.9183 13.7514 11.6003C13.7514 11.2823 13.876 10.9773 14.0977 10.7524Z" fill="black"/>
  <path d="M8.61895 25.2001C9.24708 25.2001 9.84948 25.4529 10.2936 25.903C10.7378 26.3531 10.9873 26.9635 10.9873 27.6C10.9873 28.2366 10.7378 28.847 10.2936 29.2971C9.84948 29.7471 9.24708 30 8.61895 30C7.99083 30 7.38843 29.7471 6.94428 29.2971C6.50013 28.847 6.25061 28.2366 6.25061 27.6C6.25061 26.9635 6.50013 26.3531 6.94428 25.903C7.38843 25.4529 7.99083 25.2001 8.61895 25.2001ZM22.829 25.2001C23.4571 25.2001 24.0595 25.4529 24.5037 25.903C24.9478 26.3531 25.1974 26.9635 25.1974 27.6C25.1974 28.2366 24.9478 28.847 24.5037 29.2971C24.0595 29.7471 23.4571 30 22.829 30C22.2009 30 21.5985 29.7471 21.1543 29.2971C20.7102 28.847 20.4607 28.2366 20.4607 27.6C20.4607 26.9635 20.7102 26.3531 21.1543 25.903C21.5985 25.4529 22.2009 25.2001 22.829 25.2001Z" fill="black"/>
</svg>
