<svg width="33" height="34" viewBox="0 0 33 34" fill="none" xmlns="http://www.w3.org/2000/svg">
<path d="M32.4 3.78534V29.9187C32.4 31.9805 30.7882 33.652 28.8 33.652H22.05C21.5529 33.652 21.15 33.2341 21.15 32.7187V21.5187H25.362C25.7897 21.5188 26.1585 21.2066 26.244 20.772L26.892 17.412C26.9187 17.2763 26.886 17.1352 26.8025 17.0271C26.719 16.9189 26.5936 16.8547 26.46 16.852H21.15V10.7853C21.15 10.5276 21.3515 10.3187 21.6 10.3187H26.1C26.5971 10.3187 27 9.9008 27 9.38533V6.58533C27 6.06987 26.5971 5.652 26.1 5.652H21.6C18.6177 5.652 16.2 8.15921 16.2 11.252V16.852H13.986C13.4889 16.852 13.086 17.2699 13.086 17.7853V20.5853C13.086 21.1008 13.4889 21.5187 13.986 21.5187H16.2V32.7187C16.2 33.2341 15.7971 33.652 15.3 33.652H3.6C1.61177 33.652 0 31.9805 0 29.9187V3.78534C0 1.72347 1.61177 0.052002 3.6 0.052002H28.8C30.7882 0.052002 32.4 1.72347 32.4 3.78534Z" fill="#EFEEEE"/>
</svg>
