<svg width="36" height="37" viewBox="0 0 36 37" fill="none" xmlns="http://www.w3.org/2000/svg">
<path fill-rule="evenodd" clip-rule="evenodd" d="M18 0.852051C8.05887 0.852051 0 8.91092 0 18.8521C0 28.7932 8.05887 36.8521 18 36.8521C27.9411 36.8521 36 28.7932 36 18.8521C36 14.0782 34.1036 9.49978 30.7279 6.12413C27.3523 2.74847 22.7739 0.852051 18 0.852051ZM32.4001 18.8522C30.3388 18.2333 28.1983 17.918 26.0461 17.9162C24.7657 17.9333 23.489 18.0598 22.2301 18.2942C21.7801 17.1962 21.3121 16.1342 20.8081 15.0722C23.7683 13.5932 26.4677 11.6416 28.8001 9.29424C31.1364 11.9281 32.4183 15.3316 32.4001 18.8522ZM19.5661 12.6961C22.2369 11.3563 24.6693 9.58671 26.7661 7.45805C24.2552 5.51752 21.1735 4.46077 18.0001 4.45205C16.835 4.45675 15.6746 4.60179 14.5441 4.88405C16.4216 7.3515 18.1008 9.96366 19.5661 12.6961ZM11.916 5.82007C13.8668 8.33647 15.6067 11.0095 17.118 13.8121C13.9563 15.0467 10.5941 15.6874 7.19996 15.7021C6.13528 15.6905 5.07189 15.6244 4.01396 15.5041C5.03674 11.2416 7.94532 7.67711 11.916 5.82007ZM3.6 18.1681V18.8521C3.60834 22.4038 4.92893 25.827 7.308 28.4641C10.1088 23.9093 14.4729 20.5307 19.584 18.9601C19.206 18.0241 18.774 17.1241 18.342 16.2241C14.8003 17.6521 11.0187 18.3913 7.2 18.4021C5.99634 18.3979 4.79407 18.3198 3.6 18.1681ZM9.32432 30.318C11.7934 26.0453 15.8069 22.8821 20.5383 21.48C21.804 24.9774 22.7028 28.5968 23.2203 32.28C18.5675 34.1105 13.2962 33.373 9.32432 30.336V30.318ZM23.2022 20.868C24.351 24.1519 25.2063 27.5311 25.7582 30.966C29.0632 28.8553 31.3644 25.488 32.1302 21.642C30.1683 20.9885 28.1142 20.6542 26.0462 20.6521C25.0945 20.6607 24.1444 20.7328 23.2022 20.868Z" fill="#EFEEEE"/>
</svg>
