<svg width="33" height="34" viewBox="0 0 33 34" fill="none" xmlns="http://www.w3.org/2000/svg">
<path fill-rule="evenodd" clip-rule="evenodd" d="M24.0001 0.6521H9.6001C4.62953 0.6521 0.600098 4.68154 0.600098 9.6521V24.0521C0.600098 29.0227 4.62953 33.0521 9.6001 33.0521H24.0001C28.9707 33.0521 33.0001 29.0227 33.0001 24.0521V9.6521C33.0001 4.68154 28.9707 0.6521 24.0001 0.6521ZM29.8501 24.0521C29.8402 27.2788 27.2269 29.8922 24.0001 29.9021H9.60009C6.37333 29.8922 3.75997 27.2788 3.75009 24.0521V9.65205C3.75997 6.42529 6.37333 3.81193 9.60009 3.80205H24.0001C27.2269 3.81193 29.8402 6.42529 29.8501 9.65205V24.0521ZM25.3501 10.1021C26.3442 10.1021 27.1501 9.29616 27.1501 8.30205C27.1501 7.30794 26.3442 6.50205 25.3501 6.50205C24.356 6.50205 23.5501 7.30794 23.5501 8.30205C23.5501 9.29616 24.356 10.1021 25.3501 10.1021ZM16.8001 8.75207C12.3266 8.75207 8.70009 12.3786 8.70009 16.8521C8.70009 21.3256 12.3266 24.9521 16.8001 24.9521C21.2736 24.9521 24.9001 21.3256 24.9001 16.8521C24.9049 14.7023 24.053 12.6393 22.5329 11.1192C21.0129 9.59913 18.9498 8.74728 16.8001 8.75207ZM11.8501 16.8521C11.8501 19.5859 14.0663 21.8021 16.8001 21.8021C19.5339 21.8021 21.7501 19.5859 21.7501 16.8521C21.7501 14.1182 19.5339 11.9021 16.8001 11.9021C14.0663 11.9021 11.8501 14.1182 11.8501 16.8521Z" fill="#EFEEEE"/>
</svg>
