<svg width="34" height="34" viewBox="0 0 34 34" fill="none" xmlns="http://www.w3.org/2000/svg">
<path fill-rule="evenodd" clip-rule="evenodd" d="M3.93353 0.6521H30.0669C32.1287 0.6521 33.8002 2.26387 33.8002 4.2521V29.4521C33.8002 31.4403 32.1287 33.0521 30.0669 33.0521H3.93353C1.87167 33.0521 0.200195 31.4403 0.200195 29.4521V4.2521C0.200195 2.26387 1.87167 0.6521 3.93353 0.6521ZM9.53347 27.652C10.0489 27.652 10.4668 27.2491 10.4668 26.752V14.1521C10.4668 13.655 10.0489 13.2521 9.53347 13.2521H6.73347C6.218 13.2521 5.80013 13.655 5.80013 14.1521V26.752C5.80013 27.2491 6.218 27.652 6.73347 27.652H9.53347ZM8.13351 11.4521C6.58711 11.4521 5.33351 10.2432 5.33351 8.75205C5.33351 7.26088 6.58711 6.05205 8.13351 6.05205C9.6799 6.05205 10.9335 7.26088 10.9335 8.75205C10.9335 10.2432 9.6799 11.4521 8.13351 11.4521ZM27.2669 27.6521C27.7823 27.6521 28.2002 27.2492 28.2002 26.7521V18.4721C28.2608 15.6115 26.0678 13.1702 23.1229 12.8201C21.064 12.6388 19.069 13.566 17.9335 15.2321V14.1521C17.9335 13.6551 17.5157 13.2521 17.0002 13.2521H14.2002C13.6847 13.2521 13.2669 13.6551 13.2669 14.1521V26.7521C13.2669 27.2492 13.6847 27.6521 14.2002 27.6521H17.0002C17.5157 27.6521 17.9335 27.2492 17.9335 26.7521V20.0021C17.9335 18.5109 19.1872 17.3021 20.7335 17.3021C22.2799 17.3021 23.5335 18.5109 23.5335 20.0021V26.7521C23.5335 27.2492 23.9514 27.6521 24.4669 27.6521H27.2669Z" fill="#EFEEEE"/>
</svg>
