<svg width="37" height="34" viewBox="0 0 37 34" fill="none" xmlns="http://www.w3.org/2000/svg">
<path d="M36.1475 5.34778C35.2187 6.65969 34.0959 7.80408 32.8225 8.73676C32.8225 9.07947 32.8225 9.42217 32.8225 9.78392C32.8327 16.0074 30.4849 21.9749 26.3054 26.3487C22.1259 30.7225 16.4644 33.1366 10.59 33.0498C7.19388 33.0619 3.84125 32.2408 0.794738 30.6509C0.63047 30.575 0.524519 30.4029 0.525143 30.213V30.0036C0.525143 29.7302 0.734359 29.5085 0.99244 29.5085C4.33074 29.3921 7.54995 28.1665 10.1946 26.0053C7.17297 25.9409 4.45428 24.0456 3.20311 21.1313C3.13992 20.9721 3.15959 20.7895 3.25504 20.6496C3.35048 20.5096 3.50789 20.4324 3.67041 20.4459C4.58875 20.5436 5.51626 20.4531 6.4023 20.1793C3.06668 19.4462 0.560328 16.5141 0.20163 12.9254C0.188882 12.7532 0.261745 12.5865 0.393898 12.4854C0.526051 12.3843 0.69839 12.3634 0.848657 12.4304C1.74379 12.8486 2.71009 13.0689 3.68838 13.0777C0.765587 11.0465 -0.496868 7.18302 0.615008 3.67233C0.72978 3.33119 1.00552 3.07918 1.3409 3.00891C1.67627 2.93863 2.02182 3.06046 2.25055 3.32962C6.19468 7.77429 11.614 10.4228 17.3658 10.7168C17.2185 10.0944 17.146 9.45465 17.1501 8.81292C17.2039 5.44798 19.1703 2.45043 22.1286 1.2236C25.0869 -0.00323027 28.4518 0.783467 30.6478 3.21539C32.1448 2.91344 33.5919 2.38105 34.9434 1.63513C35.0423 1.56969 35.1679 1.56969 35.2669 1.63513C35.3286 1.74 35.3286 1.87298 35.2669 1.97784C34.6123 3.56495 33.5065 4.89611 32.1036 5.78568C33.3321 5.63484 34.539 5.32801 35.6982 4.8718C35.7958 4.80145 35.9241 4.80145 36.0217 4.8718C36.1035 4.91141 36.1646 4.98716 36.1889 5.07887C36.2131 5.17058 36.198 5.26895 36.1475 5.34778Z" fill="#EFEEEE"/>
</svg>
