<?xml version="1.0" encoding="UTF-8" standalone="no"?>
<!DOCTYPE svg PUBLIC "-//W3C//DTD SVG 1.1//EN" "http://www.w3.org/Graphics/SVG/1.1/DTD/svg11.dtd">
<svg xmlns="http://www.w3.org/2000/svg" version="1.1" viewBox="0.00 0.00 512.00 809.00">
<g stroke-width="2.00" fill="none" stroke-linecap="butt">
<path stroke="#005b53" vector-effect="non-scaling-stroke" d="
  M 505.26 20.44
  A 0.27 0.27 0.0 0 0 504.99 20.17
  L 7.01 20.17
  A 0.27 0.27 0.0 0 0 6.74 20.44
  L 6.74 543.24
  A 0.27 0.27 0.0 0 0 7.01 543.51
  L 504.99 543.51
  A 0.27 0.27 0.0 0 0 505.26 543.24
  L 505.26 20.44"
/>
<path stroke="#808080" vector-effect="non-scaling-stroke" d="
  M 503.59 548.79
  A 0.26 0.26 0.0 0 0 503.33 548.53
  L 8.67 548.53
  A 0.26 0.26 0.0 0 0 8.41 548.79
  L 8.41 800.27
  A 0.26 0.26 0.0 0 0 8.67 800.53
  L 503.33 800.53
  A 0.26 0.26 0.0 0 0 503.59 800.27
  L 503.59 548.79"
/>
<path stroke="#80dbd3" vector-effect="non-scaling-stroke" d="
  M 338.18 382.99
  A 0.41 0.41 0.0 0 1 338.57 383.27
  L 372.75 481.71
  A 0.41 0.41 0.0 0 0 373.14 481.99
  L 452.42 481.99
  A 0.41 0.41 0.0 0 0 452.80 481.44
  L 312.65 95.28
  A 0.41 0.41 0.0 0 0 312.26 95.01
  L 217.32 95.00
  A 0.41 0.41 0.0 0 0 216.93 95.27
  L 76.20 481.44
  A 0.41 0.41 0.0 0 0 76.59 481.99
  L 156.65 481.98
  A 0.41 0.41 0.0 0 0 157.04 481.70
  L 191.16 383.27
  A 0.41 0.41 0.0 0 1 191.55 382.99
  L 338.18 382.99"
/>
<path stroke="#80dbd3" vector-effect="non-scaling-stroke" d="
  M 253.29 192.95
  C 238.90 235.83 224.10 278.55 209.56 321.39
  Q 209.36 322.00 210.01 322.00
  L 319.76 322.00
  A 0.45 0.45 0.0 0 0 320.19 321.40
  Q 299.03 260.03 278.18 198.49
  C 273.30 184.08 269.26 169.86 265.13 155.32
  A 0.30 0.30 0.0 0 0 264.56 155.33
  Q 259.58 174.22 253.29 192.95"
/>
<path stroke="#918f90" vector-effect="non-scaling-stroke" d="
  M 246.7739 622.4515
  A 25.35 25.35 0.0 0 0 221.3797 597.1458
  L 216.4997 597.1543
  A 25.35 25.35 0.0 0 0 191.1940 622.5485
  L 191.2061 629.4885
  A 25.35 25.35 0.0 0 0 216.6003 654.7942
  L 221.4803 654.7857
  A 25.35 25.35 0.0 0 0 246.7860 629.3915
  L 246.7739 622.4515"
/>
<path stroke="#918f90" vector-effect="non-scaling-stroke" d="
  M 369.78 622.50
  A 25.35 25.35 0.0 0 0 344.43 597.15
  L 339.55 597.15
  A 25.35 25.35 0.0 0 0 314.20 622.50
  L 314.20 629.44
  A 25.35 25.35 0.0 0 0 339.55 654.79
  L 344.43 654.79
  A 25.35 25.35 0.0 0 0 369.78 629.44
  L 369.78 622.50"
/>
<path stroke="#918f90" vector-effect="non-scaling-stroke" d="
  M 166.99 604.63
  A 0.63 0.63 0.0 0 1 167.62 604.00
  L 185.37 604.00
  A 0.63 0.63 0.0 0 0 186.00 603.37
  L 185.97 598.63
  A 0.63 0.63 0.0 0 0 185.34 598.00
  L 140.63 598.02
  A 0.63 0.63 0.0 0 0 140.00 598.66
  L 140.04 603.38
  A 0.63 0.63 0.0 0 0 140.67 604.00
  L 158.38 603.98
  A 0.63 0.63 0.0 0 1 159.01 604.61
  L 159.00 653.36
  A 0.63 0.63 0.0 0 0 159.63 653.99
  L 166.37 654.00
  A 0.63 0.63 0.0 0 0 167.00 653.37
  L 166.99 604.63"
/>
<path stroke="#918f90" vector-effect="non-scaling-stroke" d="
  M 257.95 598.71
  L 258.05 653.33
  A 0.69 0.69 0.0 0 0 258.74 654.02
  L 279.64 653.98
  A 26.35 25.42 -0.1 0 0 305.94 628.52
  L 305.94 623.36
  A 26.35 25.42 -0.1 0 0 279.54 597.98
  L 258.64 598.02
  A 0.69 0.69 0.0 0 0 257.95 598.71"
/>
<path stroke="#918f90" vector-effect="non-scaling-stroke" d="
  M 161.36 689.70
  Q 166.70 685.98 171.86 682.25
  A 0.69 0.68 -63.0 0 0 171.46 681.01
  L 164.16 681.02
  A 1.12 1.11 -68.3 0 0 163.35 681.37
  L 155.10 690.09
  A 0.47 0.47 0.0 0 0 155.33 690.87
  C 157.65 691.41 159.33 691.12 161.36 689.70"
/>
<path stroke="#918f90" vector-effect="non-scaling-stroke" d="
  M 345.13 747.02
  C 322.48 745.61 320.19 705.93 341.98 701.54
  Q 356.25 698.67 363.30 710.48
  Q 363.55 710.91 364.01 710.76
  L 369.88 708.86
  Q 370.42 708.69 370.19 708.17
  C 362.05 689.95 330.73 690.84 322.28 708.29
  C 314.87 723.60 319.22 746.27 336.94 751.60
  C 350.39 755.64 363.80 751.45 370.73 738.70
  Q 371.03 738.14 370.46 737.85
  L 365.23 735.23
  Q 364.66 734.94 364.38 735.53
  C 360.76 743.32 353.66 747.56 345.13 747.02"
/>
<path stroke="#918f90" vector-effect="non-scaling-stroke" d="
  M 433.78 720.50
  A 25.35 25.35 0.0 0 0 408.43 695.15
  L 403.55 695.15
  A 25.35 25.35 0.0 0 0 378.20 720.50
  L 378.20 727.44
  A 25.35 25.35 0.0 0 0 403.55 752.79
  L 408.43 752.79
  A 25.35 25.35 0.0 0 0 433.78 727.44
  L 433.78 720.50"
/>
<path stroke="#918f90" vector-effect="non-scaling-stroke" d="
  M 92.52 729.99
  C 106.57 730.01 126.68 733.11 127.88 713.59
  C 128.62 701.56 119.20 695.94 108.50 695.96
  Q 96.39 695.97 84.49 696.02
  A 0.50 0.50 0.0 0 0 84.00 696.52
  L 84.01 751.26
  A 0.75 0.74 89.6 0 0 84.76 752.01
  L 91.25 751.98
  A 0.74 0.73 -0.4 0 0 91.98 751.25
  L 92.01 730.50
  Q 92.01 729.99 92.52 729.99"
/>
<path stroke="#918f90" vector-effect="non-scaling-stroke" d="
  M 138.43 736.84
  C 142.45 757.95 176.93 758.28 183.55 739.51
  Q 185.04 735.29 185.01 721.83
  Q 184.98 709.21 184.99 696.57
  Q 184.99 696.01 184.44 696.01
  L 177.71 696.00
  Q 177.04 695.99 177.03 696.67
  Q 176.93 710.32 177.03 724.03
  Q 177.10 734.17 175.75 737.89
  C 170.68 751.78 146.16 749.92 146.07 733.22
  Q 145.96 715.02 146.01 696.71
  Q 146.01 696.00 145.30 696.00
  L 138.55 696.00
  Q 138.03 696.00 138.03 696.52
  Q 137.95 710.84 138.01 725.09
  Q 138.06 734.87 138.43 736.84"
/>
<path stroke="#918f90" vector-effect="non-scaling-stroke" d="
  M 229.19 722.32
  Q 237.53 720.00 238.83 712.28
  C 240.99 699.49 229.33 695.96 219.25 695.97
  Q 208.85 695.98 198.71 696.02
  A 0.72 0.71 90.0 0 0 198.00 696.74
  L 198.00 751.48
  A 0.47 0.47 0.0 0 0 198.46 751.95
  Q 210.71 752.11 223.00 751.97
  C 231.89 751.86 241.90 746.99 242.09 737.30
  C 242.24 729.36 237.07 723.94 229.24 722.92
  A 0.31 0.31 0.0 0 1 229.19 722.32"
/>
<path stroke="#918f90" vector-effect="non-scaling-stroke" d="
  M 261.68 745.99
  A 0.68 0.68 0.0 0 1 261.00 745.31
  L 261.00 696.69
  A 0.68 0.68 0.0 0 0 260.32 696.01
  L 253.68 695.99
  A 0.68 0.68 0.0 0 0 253.00 696.67
  L 253.00 751.32
  A 0.68 0.68 0.0 0 0 253.68 752.00
  L 288.34 751.99
  A 0.68 0.68 0.0 0 0 289.02 751.29
  L 288.92 746.68
  A 0.68 0.68 0.0 0 0 288.24 746.02
  L 261.68 745.99"
/>
<path stroke="#918f90" vector-effect="non-scaling-stroke" d="
  M 308.00 696.76
  A 0.77 0.77 0.0 0 0 307.23 695.99
  L 300.77 695.99
  A 0.77 0.77 0.0 0 0 300.00 696.76
  L 300.00 751.22
  A 0.77 0.77 0.0 0 0 300.77 751.99
  L 307.23 751.99
  A 0.77 0.77 0.0 0 0 308.00 751.22
  L 308.00 696.76"
/>
<path stroke="#918f90" vector-effect="non-scaling-stroke" d="
  M 201.17 613.95
  C 196.92 624.74 198.34 642.22 210.60 647.42
  C 221.98 652.25 234.92 647.03 237.93 634.49
  C 240.59 623.38 238.72 608.18 226.22 604.07
  C 216.94 601.02 205.07 604.05 201.17 613.95"
/>
<path stroke="#918f90" vector-effect="non-scaling-stroke" d="
  M 350.05 604.42
  C 338.27 600.10 325.72 605.07 322.89 618.02
  C 319.66 632.76 325.30 650.38 343.72 648.85
  Q 360.51 647.45 361.85 628.20
  C 362.51 618.72 359.74 607.96 350.05 604.42"
/>
<path stroke="#918f90" vector-effect="non-scaling-stroke" d="
  M 265.92 604.42
  L 266.08 647.62
  A 0.42 0.42 0.0 0 0 266.50 648.03
  L 278.51 647.99
  A 19.58 19.53 89.8 0 0 297.97 628.34
  L 297.95 623.46
  A 19.58 19.53 89.8 0 0 278.35 603.95
  L 266.34 603.99
  A 0.42 0.42 0.0 0 0 265.92 604.42"
/>
<path stroke="#918f90" vector-effect="non-scaling-stroke" d="
  M 388.17 711.95
  C 382.12 727.53 388.32 749.72 409.16 746.76
  C 416.11 745.78 421.46 742.25 423.93 735.72
  C 427.86 725.33 426.87 708.49 415.54 702.98
  C 406.30 698.48 392.33 701.25 388.17 711.95"
/>
<path stroke="#918f90" vector-effect="non-scaling-stroke" d="
  M 92.00 702.41
  L 92.00 723.59
  A 0.39 0.39 0.0 0 0 92.39 723.98
  L 109.22 723.98
  A 10.74 10.05 0.0 0 0 119.96 713.93
  L 119.96 712.07
  A 10.74 10.05 -0.0 0 0 109.22 702.02
  L 92.39 702.02
  A 0.39 0.39 0.0 0 0 92.00 702.41"
/>
<path stroke="#918f90" vector-effect="non-scaling-stroke" d="
  M 205.98 702.38
  L 206.02 719.62
  A 0.34 0.34 0.0 0 0 206.36 719.96
  L 221.29 719.94
  A 9.71 8.12 -0.1 0 0 230.98 711.80
  L 230.98 710.12
  A 9.71 8.12 -0.1 0 0 221.25 702.02
  L 206.32 702.04
  A 0.34 0.34 0.0 0 0 205.98 702.38"
/>
<path stroke="#918f90" vector-effect="non-scaling-stroke" d="
  M 205.89 726.74
  L 205.95 745.28
  A 0.78 0.78 0.0 0 0 206.74 746.06
  L 222.38 746.00
  A 11.64 9.23 -0.2 0 0 233.98 736.73
  L 233.98 735.09
  A 11.64 9.23 -0.2 0 0 222.30 725.90
  L 206.66 725.96
  A 0.78 0.78 0.0 0 0 205.89 726.74"
/>
</g>
<g fill="#00b6a6">
<path d="
  M 505.26 543.24
  A 0.27 0.27 0.0 0 1 504.99 543.51
  L 7.01 543.51
  A 0.27 0.27 0.0 0 1 6.74 543.24
  L 6.74 20.44
  A 0.27 0.27 0.0 0 1 7.01 20.17
  L 504.99 20.17
  A 0.27 0.27 0.0 0 1 505.26 20.44
  L 505.26 543.24
  Z
  M 338.18 382.99
  A 0.41 0.41 0.0 0 1 338.57 383.27
  L 372.75 481.71
  A 0.41 0.41 0.0 0 0 373.14 481.99
  L 452.42 481.99
  A 0.41 0.41 0.0 0 0 452.80 481.44
  L 312.65 95.28
  A 0.41 0.41 0.0 0 0 312.26 95.01
  L 217.32 95.00
  A 0.41 0.41 0.0 0 0 216.93 95.27
  L 76.20 481.44
  A 0.41 0.41 0.0 0 0 76.59 481.99
  L 156.65 481.98
  A 0.41 0.41 0.0 0 0 157.04 481.70
  L 191.16 383.27
  A 0.41 0.41 0.0 0 1 191.55 382.99
  L 338.18 382.99
  Z"
/>
<path d="
  M 209.56 321.39
  C 224.10 278.55 238.90 235.83 253.29 192.95
  Q 259.58 174.22 264.56 155.33
  A 0.30 0.30 0.0 0 1 265.13 155.32
  C 269.26 169.86 273.30 184.08 278.18 198.49
  Q 299.03 260.03 320.19 321.40
  A 0.45 0.45 0.0 0 1 319.76 322.00
  L 210.01 322.00
  Q 209.36 322.00 209.56 321.39
  Z"
/>
</g>
<g fill="#ffffff">
<path d="
  M 338.18 382.99
  L 191.55 382.99
  A 0.41 0.41 0.0 0 0 191.16 383.27
  L 157.04 481.70
  A 0.41 0.41 0.0 0 1 156.65 481.98
  L 76.59 481.99
  A 0.41 0.41 0.0 0 1 76.20 481.44
  L 216.93 95.27
  A 0.41 0.41 0.0 0 1 217.32 95.00
  L 312.26 95.01
  A 0.41 0.41 0.0 0 1 312.65 95.28
  L 452.80 481.44
  A 0.41 0.41 0.0 0 1 452.42 481.99
  L 373.14 481.99
  A 0.41 0.41 0.0 0 1 372.75 481.71
  L 338.57 383.27
  A 0.41 0.41 0.0 0 0 338.18 382.99
  Z
  M 253.29 192.95
  C 238.90 235.83 224.10 278.55 209.56 321.39
  Q 209.36 322.00 210.01 322.00
  L 319.76 322.00
  A 0.45 0.45 0.0 0 0 320.19 321.40
  Q 299.03 260.03 278.18 198.49
  C 273.30 184.08 269.26 169.86 265.13 155.32
  A 0.30 0.30 0.0 0 0 264.56 155.33
  Q 259.58 174.22 253.29 192.95
  Z"
/>
<path d="
  M 503.59 800.27
  A 0.26 0.26 0.0 0 1 503.33 800.53
  L 8.67 800.53
  A 0.26 0.26 0.0 0 1 8.41 800.27
  L 8.41 548.79
  A 0.26 0.26 0.0 0 1 8.67 548.53
  L 503.33 548.53
  A 0.26 0.26 0.0 0 1 503.59 548.79
  L 503.59 800.27
  Z
  M 246.7739 622.4515
  A 25.35 25.35 0.0 0 0 221.3797 597.1458
  L 216.4997 597.1543
  A 25.35 25.35 0.0 0 0 191.1940 622.5485
  L 191.2061 629.4885
  A 25.35 25.35 0.0 0 0 216.6003 654.7942
  L 221.4803 654.7857
  A 25.35 25.35 0.0 0 0 246.7860 629.3915
  L 246.7739 622.4515
  Z
  M 369.78 622.50
  A 25.35 25.35 0.0 0 0 344.43 597.15
  L 339.55 597.15
  A 25.35 25.35 0.0 0 0 314.20 622.50
  L 314.20 629.44
  A 25.35 25.35 0.0 0 0 339.55 654.79
  L 344.43 654.79
  A 25.35 25.35 0.0 0 0 369.78 629.44
  L 369.78 622.50
  Z
  M 166.99 604.63
  A 0.63 0.63 0.0 0 1 167.62 604.00
  L 185.37 604.00
  A 0.63 0.63 0.0 0 0 186.00 603.37
  L 185.97 598.63
  A 0.63 0.63 0.0 0 0 185.34 598.00
  L 140.63 598.02
  A 0.63 0.63 0.0 0 0 140.00 598.66
  L 140.04 603.38
  A 0.63 0.63 0.0 0 0 140.67 604.00
  L 158.38 603.98
  A 0.63 0.63 0.0 0 1 159.01 604.61
  L 159.00 653.36
  A 0.63 0.63 0.0 0 0 159.63 653.99
  L 166.37 654.00
  A 0.63 0.63 0.0 0 0 167.00 653.37
  L 166.99 604.63
  Z
  M 257.95 598.71
  L 258.05 653.33
  A 0.69 0.69 0.0 0 0 258.74 654.02
  L 279.64 653.98
  A 26.35 25.42 -0.1 0 0 305.94 628.52
  L 305.94 623.36
  A 26.35 25.42 -0.1 0 0 279.54 597.98
  L 258.64 598.02
  A 0.69 0.69 0.0 0 0 257.95 598.71
  Z
  M 161.36 689.70
  Q 166.70 685.98 171.86 682.25
  A 0.69 0.68 -63.0 0 0 171.46 681.01
  L 164.16 681.02
  A 1.12 1.11 -68.3 0 0 163.35 681.37
  L 155.10 690.09
  A 0.47 0.47 0.0 0 0 155.33 690.87
  C 157.65 691.41 159.33 691.12 161.36 689.70
  Z
  M 345.13 747.02
  C 322.48 745.61 320.19 705.93 341.98 701.54
  Q 356.25 698.67 363.30 710.48
  Q 363.55 710.91 364.01 710.76
  L 369.88 708.86
  Q 370.42 708.69 370.19 708.17
  C 362.05 689.95 330.73 690.84 322.28 708.29
  C 314.87 723.60 319.22 746.27 336.94 751.60
  C 350.39 755.64 363.80 751.45 370.73 738.70
  Q 371.03 738.14 370.46 737.85
  L 365.23 735.23
  Q 364.66 734.94 364.38 735.53
  C 360.76 743.32 353.66 747.56 345.13 747.02
  Z
  M 433.78 720.50
  A 25.35 25.35 0.0 0 0 408.43 695.15
  L 403.55 695.15
  A 25.35 25.35 0.0 0 0 378.20 720.50
  L 378.20 727.44
  A 25.35 25.35 0.0 0 0 403.55 752.79
  L 408.43 752.79
  A 25.35 25.35 0.0 0 0 433.78 727.44
  L 433.78 720.50
  Z
  M 92.52 729.99
  C 106.57 730.01 126.68 733.11 127.88 713.59
  C 128.62 701.56 119.20 695.94 108.50 695.96
  Q 96.39 695.97 84.49 696.02
  A 0.50 0.50 0.0 0 0 84.00 696.52
  L 84.01 751.26
  A 0.75 0.74 89.6 0 0 84.76 752.01
  L 91.25 751.98
  A 0.74 0.73 -0.4 0 0 91.98 751.25
  L 92.01 730.50
  Q 92.01 729.99 92.52 729.99
  Z
  M 138.43 736.84
  C 142.45 757.95 176.93 758.28 183.55 739.51
  Q 185.04 735.29 185.01 721.83
  Q 184.98 709.21 184.99 696.57
  Q 184.99 696.01 184.44 696.01
  L 177.71 696.00
  Q 177.04 695.99 177.03 696.67
  Q 176.93 710.32 177.03 724.03
  Q 177.10 734.17 175.75 737.89
  C 170.68 751.78 146.16 749.92 146.07 733.22
  Q 145.96 715.02 146.01 696.71
  Q 146.01 696.00 145.30 696.00
  L 138.55 696.00
  Q 138.03 696.00 138.03 696.52
  Q 137.95 710.84 138.01 725.09
  Q 138.06 734.87 138.43 736.84
  Z
  M 229.19 722.32
  Q 237.53 720.00 238.83 712.28
  C 240.99 699.49 229.33 695.96 219.25 695.97
  Q 208.85 695.98 198.71 696.02
  A 0.72 0.71 90.0 0 0 198.00 696.74
  L 198.00 751.48
  A 0.47 0.47 0.0 0 0 198.46 751.95
  Q 210.71 752.11 223.00 751.97
  C 231.89 751.86 241.90 746.99 242.09 737.30
  C 242.24 729.36 237.07 723.94 229.24 722.92
  A 0.31 0.31 0.0 0 1 229.19 722.32
  Z
  M 261.68 745.99
  A 0.68 0.68 0.0 0 1 261.00 745.31
  L 261.00 696.69
  A 0.68 0.68 0.0 0 0 260.32 696.01
  L 253.68 695.99
  A 0.68 0.68 0.0 0 0 253.00 696.67
  L 253.00 751.32
  A 0.68 0.68 0.0 0 0 253.68 752.00
  L 288.34 751.99
  A 0.68 0.68 0.0 0 0 289.02 751.29
  L 288.92 746.68
  A 0.68 0.68 0.0 0 0 288.24 746.02
  L 261.68 745.99
  Z
  M 308.00 696.76
  A 0.77 0.77 0.0 0 0 307.23 695.99
  L 300.77 695.99
  A 0.77 0.77 0.0 0 0 300.00 696.76
  L 300.00 751.22
  A 0.77 0.77 0.0 0 0 300.77 751.99
  L 307.23 751.99
  A 0.77 0.77 0.0 0 0 308.00 751.22
  L 308.00 696.76
  Z"
/>
<path d="
  M 201.17 613.95
  C 205.07 604.05 216.94 601.02 226.22 604.07
  C 238.72 608.18 240.59 623.38 237.93 634.49
  C 234.92 647.03 221.98 652.25 210.60 647.42
  C 198.34 642.22 196.92 624.74 201.17 613.95
  Z"
/>
<path d="
  M 350.05 604.42
  C 359.74 607.96 362.51 618.72 361.85 628.20
  Q 360.51 647.45 343.72 648.85
  C 325.30 650.38 319.66 632.76 322.89 618.02
  C 325.72 605.07 338.27 600.10 350.05 604.42
  Z"
/>
<path d="
  M 265.92 604.42
  A 0.42 0.42 0.0 0 1 266.34 603.99
  L 278.35 603.95
  A 19.58 19.53 89.8 0 1 297.95 623.46
  L 297.97 628.34
  A 19.58 19.53 89.8 0 1 278.51 647.99
  L 266.50 648.03
  A 0.42 0.42 0.0 0 1 266.08 647.62
  L 265.92 604.42
  Z"
/>
<path d="
  M 388.17 711.95
  C 392.33 701.25 406.30 698.48 415.54 702.98
  C 426.87 708.49 427.86 725.33 423.93 735.72
  C 421.46 742.25 416.11 745.78 409.16 746.76
  C 388.32 749.72 382.12 727.53 388.17 711.95
  Z"
/>
<path d="
  M 92.00 702.41
  A 0.39 0.39 0.0 0 1 92.39 702.02
  L 109.22 702.02
  A 10.74 10.05 -0.0 0 1 119.96 712.07
  L 119.96 713.93
  A 10.74 10.05 -0.0 0 1 109.22 723.98
  L 92.39 723.98
  A 0.39 0.39 0.0 0 1 92.00 723.59
  L 92.00 702.41
  Z"
/>
<path d="
  M 205.98 702.38
  A 0.34 0.34 0.0 0 1 206.32 702.04
  L 221.25 702.02
  A 9.71 8.12 -0.1 0 1 230.98 710.12
  L 230.98 711.80
  A 9.71 8.12 -0.1 0 1 221.29 719.94
  L 206.36 719.96
  A 0.34 0.34 0.0 0 1 206.02 719.62
  L 205.98 702.38
  Z"
/>
<path d="
  M 205.89 726.74
  A 0.78 0.78 0.0 0 1 206.66 725.96
  L 222.30 725.90
  A 11.64 9.23 -0.2 0 1 233.98 735.09
  L 233.98 736.73
  A 11.64 9.23 -0.2 0 1 222.38 746.00
  L 206.74 746.06
  A 0.78 0.78 0.0 0 1 205.95 745.28
  L 205.89 726.74
  Z"
/>
</g>
<path fill="#000000" d="
  M 512.00 13.46
  L 512.00 809.00
  L 0.00 809.00
  L 0.00 13.46
  L 512.00 13.46
  Z
  M 505.26 20.44
  A 0.27 0.27 0.0 0 0 504.99 20.17
  L 7.01 20.17
  A 0.27 0.27 0.0 0 0 6.74 20.44
  L 6.74 543.24
  A 0.27 0.27 0.0 0 0 7.01 543.51
  L 504.99 543.51
  A 0.27 0.27 0.0 0 0 505.26 543.24
  L 505.26 20.44
  Z
  M 503.59 548.79
  A 0.26 0.26 0.0 0 0 503.33 548.53
  L 8.67 548.53
  A 0.26 0.26 0.0 0 0 8.41 548.79
  L 8.41 800.27
  A 0.26 0.26 0.0 0 0 8.67 800.53
  L 503.33 800.53
  A 0.26 0.26 0.0 0 0 503.59 800.27
  L 503.59 548.79
  Z"
/>
<g fill="#231f20">
<path d="
  M 246.7860 629.3915
  A 25.35 25.35 0.0 0 1 221.4803 654.7857
  L 216.6003 654.7942
  A 25.35 25.35 0.0 0 1 191.2061 629.4885
  L 191.1940 622.5485
  A 25.35 25.35 0.0 0 1 216.4997 597.1543
  L 221.3797 597.1458
  A 25.35 25.35 0.0 0 1 246.7739 622.4515
  L 246.7860 629.3915
  Z
  M 201.17 613.95
  C 196.92 624.74 198.34 642.22 210.60 647.42
  C 221.98 652.25 234.92 647.03 237.93 634.49
  C 240.59 623.38 238.72 608.18 226.22 604.07
  C 216.94 601.02 205.07 604.05 201.17 613.95
  Z"
/>
<path d="
  M 369.78 629.44
  A 25.35 25.35 0.0 0 1 344.43 654.79
  L 339.55 654.79
  A 25.35 25.35 0.0 0 1 314.20 629.44
  L 314.20 622.50
  A 25.35 25.35 0.0 0 1 339.55 597.15
  L 344.43 597.15
  A 25.35 25.35 0.0 0 1 369.78 622.50
  L 369.78 629.44
  Z
  M 350.05 604.42
  C 338.27 600.10 325.72 605.07 322.89 618.02
  C 319.66 632.76 325.30 650.38 343.72 648.85
  Q 360.51 647.45 361.85 628.20
  C 362.51 618.72 359.74 607.96 350.05 604.42
  Z"
/>
<path d="
  M 166.99 604.63
  L 167.00 653.37
  A 0.63 0.63 0.0 0 1 166.37 654.00
  L 159.63 653.99
  A 0.63 0.63 0.0 0 1 159.00 653.36
  L 159.01 604.61
  A 0.63 0.63 0.0 0 0 158.38 603.98
  L 140.67 604.00
  A 0.63 0.63 0.0 0 1 140.04 603.38
  L 140.00 598.66
  A 0.63 0.63 0.0 0 1 140.63 598.02
  L 185.34 598.00
  A 0.63 0.63 0.0 0 1 185.97 598.63
  L 186.00 603.37
  A 0.63 0.63 0.0 0 1 185.37 604.00
  L 167.62 604.00
  A 0.63 0.63 0.0 0 0 166.99 604.63
  Z"
/>
<path d="
  M 257.95 598.71
  A 0.69 0.69 0.0 0 1 258.64 598.02
  L 279.54 597.98
  A 26.35 25.42 -0.1 0 1 305.94 623.36
  L 305.94 628.52
  A 26.35 25.42 -0.1 0 1 279.64 653.98
  L 258.74 654.02
  A 0.69 0.69 0.0 0 1 258.05 653.33
  L 257.95 598.71
  Z
  M 265.92 604.42
  L 266.08 647.62
  A 0.42 0.42 0.0 0 0 266.50 648.03
  L 278.51 647.99
  A 19.58 19.53 89.8 0 0 297.97 628.34
  L 297.95 623.46
  A 19.58 19.53 89.8 0 0 278.35 603.95
  L 266.34 603.99
  A 0.42 0.42 0.0 0 0 265.92 604.42
  Z"
/>
<path d="
  M 161.36 689.70
  C 159.33 691.12 157.65 691.41 155.33 690.87
  A 0.47 0.47 0.0 0 1 155.10 690.09
  L 163.35 681.37
  A 1.12 1.11 -68.3 0 1 164.16 681.02
  L 171.46 681.01
  A 0.69 0.68 -63.0 0 1 171.86 682.25
  Q 166.70 685.98 161.36 689.70
  Z"
/>
<path d="
  M 341.98 701.54
  C 320.19 705.93 322.48 745.61 345.13 747.02
  C 353.66 747.56 360.76 743.32 364.38 735.53
  Q 364.66 734.94 365.23 735.23
  L 370.46 737.85
  Q 371.03 738.14 370.73 738.70
  C 363.80 751.45 350.39 755.64 336.94 751.60
  C 319.22 746.27 314.87 723.60 322.28 708.29
  C 330.73 690.84 362.05 689.95 370.19 708.17
  Q 370.42 708.69 369.88 708.86
  L 364.01 710.76
  Q 363.55 710.91 363.30 710.48
  Q 356.25 698.67 341.98 701.54
  Z"
/>
<path d="
  M 433.78 727.44
  A 25.35 25.35 0.0 0 1 408.43 752.79
  L 403.55 752.79
  A 25.35 25.35 0.0 0 1 378.20 727.44
  L 378.20 720.50
  A 25.35 25.35 0.0 0 1 403.55 695.15
  L 408.43 695.15
  A 25.35 25.35 0.0 0 1 433.78 720.50
  L 433.78 727.44
  Z
  M 388.17 711.95
  C 382.12 727.53 388.32 749.72 409.16 746.76
  C 416.11 745.78 421.46 742.25 423.93 735.72
  C 427.86 725.33 426.87 708.49 415.54 702.98
  C 406.30 698.48 392.33 701.25 388.17 711.95
  Z"
/>
<path d="
  M 92.01 730.50
  L 91.98 751.25
  A 0.74 0.73 -0.4 0 1 91.25 751.98
  L 84.76 752.01
  A 0.75 0.74 89.6 0 1 84.01 751.26
  L 84.00 696.52
  A 0.50 0.50 0.0 0 1 84.49 696.02
  Q 96.39 695.97 108.50 695.96
  C 119.20 695.94 128.62 701.56 127.88 713.59
  C 126.68 733.11 106.57 730.01 92.52 729.99
  Q 92.01 729.99 92.01 730.50
  Z
  M 92.00 702.41
  L 92.00 723.59
  A 0.39 0.39 0.0 0 0 92.39 723.98
  L 109.22 723.98
  A 10.74 10.05 0.0 0 0 119.96 713.93
  L 119.96 712.07
  A 10.74 10.05 -0.0 0 0 109.22 702.02
  L 92.39 702.02
  A 0.39 0.39 0.0 0 0 92.00 702.41
  Z"
/>
<path d="
  M 183.55 739.51
  C 176.93 758.28 142.45 757.95 138.43 736.84
  Q 138.06 734.87 138.01 725.09
  Q 137.95 710.84 138.03 696.52
  Q 138.03 696.00 138.55 696.00
  L 145.30 696.00
  Q 146.01 696.00 146.01 696.71
  Q 145.96 715.02 146.07 733.22
  C 146.16 749.92 170.68 751.78 175.75 737.89
  Q 177.10 734.17 177.03 724.03
  Q 176.93 710.32 177.03 696.67
  Q 177.04 695.99 177.71 696.00
  L 184.44 696.01
  Q 184.99 696.01 184.99 696.57
  Q 184.98 709.21 185.01 721.83
  Q 185.04 735.29 183.55 739.51
  Z"
/>
<path d="
  M 229.24 722.92
  C 237.07 723.94 242.24 729.36 242.09 737.30
  C 241.90 746.99 231.89 751.86 223.00 751.97
  Q 210.71 752.11 198.46 751.95
  A 0.47 0.47 0.0 0 1 198.00 751.48
  L 198.00 696.74
  A 0.72 0.71 90.0 0 1 198.71 696.02
  Q 208.85 695.98 219.25 695.97
  C 229.33 695.96 240.99 699.49 238.83 712.28
  Q 237.53 720.00 229.19 722.32
  A 0.31 0.31 0.0 0 0 229.24 722.92
  Z
  M 205.98 702.38
  L 206.02 719.62
  A 0.34 0.34 0.0 0 0 206.36 719.96
  L 221.29 719.94
  A 9.71 8.12 -0.1 0 0 230.98 711.80
  L 230.98 710.12
  A 9.71 8.12 -0.1 0 0 221.25 702.02
  L 206.32 702.04
  A 0.34 0.34 0.0 0 0 205.98 702.38
  Z
  M 205.89 726.74
  L 205.95 745.28
  A 0.78 0.78 0.0 0 0 206.74 746.06
  L 222.38 746.00
  A 11.64 9.23 -0.2 0 0 233.98 736.73
  L 233.98 735.09
  A 11.64 9.23 -0.2 0 0 222.30 725.90
  L 206.66 725.96
  A 0.78 0.78 0.0 0 0 205.89 726.74
  Z"
/>
<path d="
  M 261.68 745.99
  L 288.24 746.02
  A 0.68 0.68 0.0 0 1 288.92 746.68
  L 289.02 751.29
  A 0.68 0.68 0.0 0 1 288.34 751.99
  L 253.68 752.00
  A 0.68 0.68 0.0 0 1 253.00 751.32
  L 253.00 696.67
  A 0.68 0.68 0.0 0 1 253.68 695.99
  L 260.32 696.01
  A 0.68 0.68 0.0 0 1 261.00 696.69
  L 261.00 745.31
  A 0.68 0.68 0.0 0 0 261.68 745.99
  Z"
/>
<rect x="300.00" y="695.99" width="8.00" height="56.00" rx="0.77"/>
</g>
</svg>
