<?xml version="1.0" encoding="UTF-8" standalone="no"?>
<!DOCTYPE svg PUBLIC "-//W3C//DTD SVG 1.1//EN" "http://www.w3.org/Graphics/SVG/1.1/DTD/svg11.dtd">
<svg xmlns="http://www.w3.org/2000/svg" version="1.1" viewBox="0.00 0.00 640.00 640.00">
<g stroke-width="2.00" fill="none" stroke-linecap="butt">
<path stroke="#f38089" vector-effect="non-scaling-stroke" d="
  M 178.54 317.21
  C 183.98 352.56 214.14 379.42 250.50 379.62
  Q 282.68 379.80 314.44 379.77
  A 2.00 2.00 0.0 0 0 316.44 377.77
  L 316.44 94.00
  A 1.78 1.78 0.0 0 0 314.66 92.22
  Q 286.58 92.27 258.24 92.22
  Q 245.02 92.19 238.32 93.38
  C 208.66 98.66 184.83 121.83 178.99 151.60
  Q 177.67 158.33 177.66 171.50
  Q 177.60 234.37 177.62 297.24
  Q 177.62 311.21 178.54 317.21"
/>
<path stroke="#f38089" vector-effect="non-scaling-stroke" d="
  M 344.98 94.52
  L 344.98 377.48
  A 2.53 2.53 0.0 0 0 347.51 380.01
  L 390.32 380.01
  A 76.00 75.22 90.0 0 0 465.54 304.01
  L 465.54 167.99
  A 76.00 75.22 -90.0 0 0 390.32 91.99
  L 347.51 91.99
  A 2.53 2.53 0.0 0 0 344.98 94.52"
/>
<path stroke="#f38089" vector-effect="non-scaling-stroke" d="
  M 533.49 441.38
  A 19.26 19.26 0.0 0 0 514.23 422.12
  A 19.26 19.26 0.0 0 0 494.97 441.38
  A 19.26 19.26 0.0 0 0 514.23 460.64
  A 19.26 19.26 0.0 0 0 533.49 441.38"
/>
<path stroke="#f38089" vector-effect="non-scaling-stroke" d="
  M 134.85 423.34
  A 0.33 0.33 0.0 0 0 134.52 423.67
  L 134.55 445.72
  A 0.33 0.33 0.0 0 1 133.95 445.91
  L 117.20 423.50
  A 0.33 0.33 0.0 0 0 116.94 423.37
  L 109.91 423.35
  A 0.33 0.33 0.0 0 0 109.58 423.68
  L 109.60 459.09
  A 0.33 0.33 0.0 0 0 109.93 459.42
  L 116.68 459.38
  A 0.33 0.33 0.0 0 0 117.01 459.05
  L 116.95 436.51
  A 0.33 0.33 0.0 0 1 117.55 436.32
  L 134.57 459.26
  A 0.33 0.33 0.0 0 0 134.84 459.39
  L 141.68 459.37
  A 0.33 0.33 0.0 0 0 142.01 459.04
  L 142.01 423.70
  A 0.33 0.33 0.0 0 0 141.68 423.37
  L 134.85 423.34"
/>
<path stroke="#f38089" vector-effect="non-scaling-stroke" d="
  M 176.98 423.73
  A 0.38 0.38 0.0 0 0 176.60 423.35
  L 169.16 423.35
  A 0.38 0.38 0.0 0 0 168.78 423.73
  L 168.78 459.01
  A 0.38 0.38 0.0 0 0 169.16 459.39
  L 176.60 459.39
  A 0.38 0.38 0.0 0 0 176.98 459.01
  L 176.98 423.73"
/>
<path stroke="#f38089" vector-effect="non-scaling-stroke" d="
  M 211.05 459.41
  A 0.33 0.33 0.0 0 0 211.38 459.08
  L 211.36 436.67
  A 0.33 0.33 0.0 0 1 211.96 436.47
  L 228.88 459.25
  A 0.33 0.33 0.0 0 0 229.15 459.38
  L 235.90 459.39
  A 0.33 0.33 0.0 0 0 236.23 459.06
  L 236.24 423.70
  A 0.33 0.33 0.0 0 0 235.91 423.37
  L 229.10 423.36
  A 0.33 0.33 0.0 0 0 228.77 423.69
  L 228.80 445.64
  A 0.33 0.33 0.0 0 1 228.20 445.83
  L 211.48 423.49
  A 0.33 0.33 0.0 0 0 211.21 423.36
  L 204.33 423.38
  A 0.33 0.33 0.0 0 0 204.00 423.71
  L 204.00 459.07
  A 0.33 0.33 0.0 0 0 204.33 459.40
  L 211.05 459.41"
/>
<path stroke="#f38089" vector-effect="non-scaling-stroke" d="
  M 272.83 431.20
  A 0.39 0.39 0.0 0 1 273.22 431.59
  L 273.22 458.98
  A 0.39 0.39 0.0 0 0 273.61 459.37
  L 280.60 459.40
  A 0.39 0.39 0.0 0 0 280.99 459.01
  L 280.97 431.59
  A 0.39 0.39 0.0 0 1 281.36 431.20
  L 291.84 431.22
  A 0.39 0.39 0.0 0 0 292.23 430.83
  L 292.24 423.77
  A 0.39 0.39 0.0 0 0 291.85 423.38
  L 261.96 423.37
  A 0.39 0.39 0.0 0 0 261.57 423.76
  L 261.59 430.83
  A 0.39 0.39 0.0 0 0 261.98 431.22
  L 272.83 431.20"
/>
<path stroke="#f38089" vector-effect="non-scaling-stroke" d="
  M 325.76 430.59
  A 0.35 0.35 0.0 0 1 326.11 430.24
  L 346.06 430.26
  A 0.35 0.35 0.0 0 0 346.41 429.91
  L 346.39 423.72
  A 0.35 0.35 0.0 0 0 346.04 423.37
  L 318.74 423.37
  A 0.35 0.35 0.0 0 0 318.39 423.72
  L 318.39 459.04
  A 0.35 0.35 0.0 0 0 318.74 459.39
  L 346.08 459.39
  A 0.35 0.35 0.0 0 0 346.43 459.04
  L 346.43 452.95
  A 0.35 0.35 0.0 0 0 346.08 452.60
  L 326.09 452.63
  A 0.35 0.35 0.0 0 1 325.74 452.28
  L 325.75 444.79
  A 0.35 0.35 0.0 0 1 326.10 444.44
  L 344.45 444.47
  A 0.35 0.35 0.0 0 0 344.80 444.12
  L 344.78 437.93
  A 0.35 0.35 0.0 0 0 344.43 437.58
  L 326.07 437.66
  A 0.35 0.35 0.0 0 1 325.72 437.31
  L 325.76 430.59"
/>
<path stroke="#f38089" vector-effect="non-scaling-stroke" d="
  M 383.04 459.41
  A 0.34 0.34 0.0 0 0 383.38 459.07
  L 383.37 436.64
  A 0.34 0.34 0.0 0 1 383.98 436.44
  L 400.93 459.24
  A 0.34 0.34 0.0 0 0 401.20 459.38
  L 408.11 459.40
  A 0.34 0.34 0.0 0 0 408.45 459.06
  L 408.45 423.70
  A 0.34 0.34 0.0 0 0 408.11 423.36
  L 401.11 423.36
  A 0.34 0.34 0.0 0 0 400.77 423.70
  L 400.80 445.53
  A 0.34 0.34 0.0 0 1 400.19 445.73
  L 383.53 423.50
  A 0.34 0.34 0.0 0 0 383.26 423.36
  L 376.34 423.38
  A 0.34 0.34 0.0 0 0 376.00 423.72
  L 376.00 459.05
  A 0.34 0.34 0.0 0 0 376.34 459.39
  L 383.04 459.41"
/>
<path stroke="#f38089" vector-effect="non-scaling-stroke" d="
  M 438.61 423.79
  L 438.43 458.85
  A 0.53 0.53 0.0 0 0 438.96 459.38
  L 453.33 459.46
  A 18.58 18.01 0.3 0 0 472.00 441.55
  L 472.00 441.45
  A 18.58 18.01 0.3 0 0 453.51 423.34
  L 439.14 423.27
  A 0.53 0.53 0.0 0 0 438.61 423.79"
/>
<path stroke="#f38089" vector-effect="non-scaling-stroke" d="
  M 404.74 514.25
  C 402.03 492.07 431.43 481.56 444.17 500.67
  Q 444.54 501.22 445.04 500.79
  L 455.34 491.83
  A 0.70 0.69 -39.4 0 0 455.44 490.89
  Q 444.19 475.97 427.02 475.44
  C 410.59 474.93 396.22 484.70 391.16 500.48
  C 383.62 524.01 400.97 547.70 425.07 547.77
  C 437.67 547.81 448.17 542.39 455.45 532.23
  A 0.62 0.62 0.0 0 0 455.35 531.40
  L 444.95 522.32
  A 0.45 0.45 0.0 0 0 444.28 522.41
  C 433.61 538.87 407.19 534.28 404.74 514.25"
/>
<path stroke="#f38089" vector-effect="non-scaling-stroke" d="
  M 169.06 522.64
  C 167.49 512.31 157.02 508.25 148.25 506.25
  Q 142.60 504.96 130.21 502.46
  Q 125.79 501.57 123.97 500.07
  C 118.54 495.59 124.21 490.83 128.76 489.98
  Q 143.86 487.15 158.38 493.73
  A 0.57 0.57 0.0 0 0 159.15 493.43
  L 163.65 482.48
  Q 163.87 481.93 163.32 481.71
  Q 149.88 476.34 135.55 476.76
  C 123.73 477.10 106.85 483.09 107.17 497.82
  C 107.38 507.47 115.57 512.27 123.99 514.47
  Q 132.66 516.74 143.23 518.42
  Q 149.61 519.44 152.77 521.50
  C 158.20 525.04 153.63 532.24 148.78 533.35
  Q 130.10 537.62 113.39 528.59
  Q 112.99 528.38 112.76 528.78
  L 106.71 539.70
  Q 106.45 540.18 106.94 540.42
  Q 128.43 550.80 151.93 545.67
  C 163.18 543.22 170.87 534.57 169.06 522.64"
/>
<path stroke="#f38089" vector-effect="non-scaling-stroke" d="
  M 205.01 525.09
  A 0.32 0.32 0.0 0 1 204.39 525.08
  L 191.83 477.86
  A 0.32 0.32 0.0 0 0 191.52 477.62
  L 177.19 477.60
  A 0.32 0.32 0.0 0 0 176.89 478.01
  L 195.91 545.25
  A 0.32 0.32 0.0 0 0 196.22 545.48
  L 212.22 545.47
  A 0.32 0.32 0.0 0 0 212.53 545.24
  L 224.67 502.25
  A 0.32 0.32 0.0 0 1 225.29 502.26
  L 237.33 545.25
  A 0.32 0.32 0.0 0 0 237.64 545.48
  L 253.72 545.47
  A 0.32 0.32 0.0 0 0 254.03 545.24
  L 273.15 478.04
  A 0.32 0.32 0.0 0 0 272.85 477.63
  L 258.51 477.60
  A 0.32 0.32 0.0 0 0 258.20 477.84
  L 245.60 525.31
  A 0.32 0.32 0.0 0 1 244.99 525.32
  L 231.14 477.83
  A 0.32 0.32 0.0 0 0 230.83 477.60
  L 219.08 477.62
  A 0.32 0.32 0.0 0 0 218.77 477.85
  L 205.01 525.09"
/>
<path stroke="#f38089" vector-effect="non-scaling-stroke" d="
  M 305.24 478.00
  A 0.39 0.39 0.0 0 0 304.85 477.61
  L 290.15 477.61
  A 0.39 0.39 0.0 0 0 289.76 478.00
  L 289.76 545.08
  A 0.39 0.39 0.0 0 0 290.15 545.47
  L 304.85 545.47
  A 0.39 0.39 0.0 0 0 305.24 545.08
  L 305.24 478.00"
/>
<path stroke="#f38089" vector-effect="non-scaling-stroke" d="
  M 357.75 492.60
  A 0.36 0.36 0.0 0 1 358.11 492.24
  L 378.64 492.24
  A 0.36 0.36 0.0 0 0 379.00 491.88
  L 379.00 477.99
  A 0.36 0.36 0.0 0 0 378.64 477.63
  L 321.81 477.62
  A 0.36 0.36 0.0 0 0 321.45 477.98
  L 321.47 491.88
  A 0.36 0.36 0.0 0 0 321.83 492.24
  L 342.64 492.24
  A 0.36 0.36 0.0 0 1 343.00 492.60
  L 343.00 545.12
  A 0.36 0.36 0.0 0 0 343.36 545.48
  L 357.39 545.48
  A 0.36 0.36 0.0 0 0 357.75 545.12
  L 357.75 492.60"
/>
<path stroke="#f38089" vector-effect="non-scaling-stroke" d="
  M 516.64 503.81
  A 0.42 0.42 0.0 0 1 516.22 504.23
  L 485.66 504.23
  A 0.42 0.42 0.0 0 1 485.24 503.81
  L 485.24 478.05
  A 0.42 0.42 0.0 0 0 484.82 477.63
  L 471.42 477.60
  A 0.42 0.42 0.0 0 0 471.00 478.02
  L 471.00 545.06
  A 0.42 0.42 0.0 0 0 471.42 545.48
  L 484.83 545.47
  A 0.42 0.42 0.0 0 0 485.25 545.05
  L 485.24 518.83
  A 0.42 0.42 0.0 0 1 485.66 518.41
  L 516.21 518.39
  A 0.42 0.42 0.0 0 1 516.63 518.81
  L 516.62 545.06
  A 0.42 0.42 0.0 0 0 517.04 545.48
  L 530.34 545.48
  A 0.42 0.42 0.0 0 0 530.76 545.06
  L 530.76 478.04
  A 0.42 0.42 0.0 0 0 530.34 477.62
  L 517.03 477.61
  A 0.42 0.42 0.0 0 0 516.61 478.03
  L 516.64 503.81"
/>
<path stroke="#f38089" vector-effect="non-scaling-stroke" d="
  M 550.19 539.23
  L 551.78 544.70
  A 1.39 1.39 0.0 0 0 554.48 544.62
  Q 555.08 541.93 556.19 539.41
  Q 556.78 538.08 556.75 539.53
  L 556.63 544.80
  Q 556.62 545.49 557.30 545.50
  L 557.88 545.51
  A 0.64 0.64 0.0 0 0 558.52 544.87
  L 558.53 536.40
  A 1.67 1.67 0.0 0 0 555.27 535.88
  L 553.45 541.52
  Q 553.19 542.31 552.86 541.55
  Q 551.72 538.95 551.23 536.14
  A 1.96 1.95 37.0 0 0 547.36 536.68
  Q 547.82 540.91 547.52 544.88
  A 0.56 0.55 3.4 0 0 548.06 545.48
  L 549.04 545.50
  Q 549.59 545.51 549.59 544.97
  L 549.59 539.31
  A 0.31 0.30 37.2 0 1 550.19 539.23"
/>
<path stroke="#f38089" vector-effect="non-scaling-stroke" d="
  M 542.38 537.79
  A 0.41 0.41 0.0 0 1 542.82 537.38
  L 545.10 537.53
  A 0.41 0.41 0.0 0 0 545.53 537.14
  L 545.59 535.59
  A 0.41 0.41 0.0 0 0 545.17 535.16
  L 537.46 535.23
  A 0.41 0.41 0.0 0 0 537.05 535.66
  L 537.13 537.09
  A 0.41 0.41 0.0 0 0 537.55 537.48
  L 540.05 537.43
  A 0.41 0.41 0.0 0 1 540.47 537.84
  L 540.47 545.10
  A 0.41 0.41 0.0 0 0 540.87 545.51
  L 541.94 545.52
  A 0.41 0.41 0.0 0 0 542.36 545.11
  L 542.38 537.79"
/>
<path stroke="#f38089" vector-effect="non-scaling-stroke" d="
  M 293.25 355.65
  L 293.25 116.37
  A 1.03 1.03 0.0 0 0 292.22 115.34
  L 252.93 115.34
  A 52.80 52.20 -90.0 0 0 200.73 168.14
  L 200.73 303.88
  A 52.80 52.20 -90.0 0 0 252.93 356.68
  L 292.22 356.68
  A 1.03 1.03 0.0 0 0 293.25 355.65"
/>
<path stroke="#f38089" vector-effect="non-scaling-stroke" d="
  M 430.91 250.33
  A 28.93 28.93 0.0 0 0 401.98 221.40
  A 28.93 28.93 0.0 0 0 373.05 250.33
  A 28.93 28.93 0.0 0 0 401.98 279.26
  A 28.93 28.93 0.0 0 0 430.91 250.33"
/>
<path stroke="#f38089" vector-effect="non-scaling-stroke" d="
  M 276.66 178.48
  A 27.14 27.14 0.0 0 0 249.52 151.34
  A 27.14 27.14 0.0 0 0 222.38 178.48
  A 27.14 27.14 0.0 0 0 249.52 205.62
  A 27.14 27.14 0.0 0 0 276.66 178.48"
/>
<path stroke="#f38089" vector-effect="non-scaling-stroke" d="
  M 525.25 441.38
  A 11.03 11.03 0.0 0 0 514.22 430.35
  A 11.03 11.03 0.0 0 0 503.19 441.38
  A 11.03 11.03 0.0 0 0 514.22 452.41
  A 11.03 11.03 0.0 0 0 525.25 441.38"
/>
<path stroke="#f38089" vector-effect="non-scaling-stroke" d="
  M 446.05 431.54
  L 445.95 451.06
  A 0.54 0.54 0.0 0 0 446.49 451.61
  L 453.39 451.64
  A 10.66 10.13 0.3 0 0 464.10 441.57
  L 464.10 441.23
  A 10.66 10.13 0.3 0 0 453.49 431.04
  L 446.59 431.01
  A 0.54 0.54 0.0 0 0 446.05 431.54"
/>
</g>
<g fill="#e60012">
<path d="
  M 0.00 0.00
  L 640.00 0.00
  L 640.00 640.00
  L 0.00 640.00
  L 0.00 0.00
  Z
  M 178.54 317.21
  C 183.98 352.56 214.14 379.42 250.50 379.62
  Q 282.68 379.80 314.44 379.77
  A 2.00 2.00 0.0 0 0 316.44 377.77
  L 316.44 94.00
  A 1.78 1.78 0.0 0 0 314.66 92.22
  Q 286.58 92.27 258.24 92.22
  Q 245.02 92.19 238.32 93.38
  C 208.66 98.66 184.83 121.83 178.99 151.60
  Q 177.67 158.33 177.66 171.50
  Q 177.60 234.37 177.62 297.24
  Q 177.62 311.21 178.54 317.21
  Z
  M 344.98 94.52
  L 344.98 377.48
  A 2.53 2.53 0.0 0 0 347.51 380.01
  L 390.32 380.01
  A 76.00 75.22 90.0 0 0 465.54 304.01
  L 465.54 167.99
  A 76.00 75.22 -90.0 0 0 390.32 91.99
  L 347.51 91.99
  A 2.53 2.53 0.0 0 0 344.98 94.52
  Z
  M 533.49 441.38
  A 19.26 19.26 0.0 0 0 514.23 422.12
  A 19.26 19.26 0.0 0 0 494.97 441.38
  A 19.26 19.26 0.0 0 0 514.23 460.64
  A 19.26 19.26 0.0 0 0 533.49 441.38
  Z
  M 134.85 423.34
  A 0.33 0.33 0.0 0 0 134.52 423.67
  L 134.55 445.72
  A 0.33 0.33 0.0 0 1 133.95 445.91
  L 117.20 423.50
  A 0.33 0.33 0.0 0 0 116.94 423.37
  L 109.91 423.35
  A 0.33 0.33 0.0 0 0 109.58 423.68
  L 109.60 459.09
  A 0.33 0.33 0.0 0 0 109.93 459.42
  L 116.68 459.38
  A 0.33 0.33 0.0 0 0 117.01 459.05
  L 116.95 436.51
  A 0.33 0.33 0.0 0 1 117.55 436.32
  L 134.57 459.26
  A 0.33 0.33 0.0 0 0 134.84 459.39
  L 141.68 459.37
  A 0.33 0.33 0.0 0 0 142.01 459.04
  L 142.01 423.70
  A 0.33 0.33 0.0 0 0 141.68 423.37
  L 134.85 423.34
  Z
  M 176.98 423.73
  A 0.38 0.38 0.0 0 0 176.60 423.35
  L 169.16 423.35
  A 0.38 0.38 0.0 0 0 168.78 423.73
  L 168.78 459.01
  A 0.38 0.38 0.0 0 0 169.16 459.39
  L 176.60 459.39
  A 0.38 0.38 0.0 0 0 176.98 459.01
  L 176.98 423.73
  Z
  M 211.05 459.41
  A 0.33 0.33 0.0 0 0 211.38 459.08
  L 211.36 436.67
  A 0.33 0.33 0.0 0 1 211.96 436.47
  L 228.88 459.25
  A 0.33 0.33 0.0 0 0 229.15 459.38
  L 235.90 459.39
  A 0.33 0.33 0.0 0 0 236.23 459.06
  L 236.24 423.70
  A 0.33 0.33 0.0 0 0 235.91 423.37
  L 229.10 423.36
  A 0.33 0.33 0.0 0 0 228.77 423.69
  L 228.80 445.64
  A 0.33 0.33 0.0 0 1 228.20 445.83
  L 211.48 423.49
  A 0.33 0.33 0.0 0 0 211.21 423.36
  L 204.33 423.38
  A 0.33 0.33 0.0 0 0 204.00 423.71
  L 204.00 459.07
  A 0.33 0.33 0.0 0 0 204.33 459.40
  L 211.05 459.41
  Z
  M 272.83 431.20
  A 0.39 0.39 0.0 0 1 273.22 431.59
  L 273.22 458.98
  A 0.39 0.39 0.0 0 0 273.61 459.37
  L 280.60 459.40
  A 0.39 0.39 0.0 0 0 280.99 459.01
  L 280.97 431.59
  A 0.39 0.39 0.0 0 1 281.36 431.20
  L 291.84 431.22
  A 0.39 0.39 0.0 0 0 292.23 430.83
  L 292.24 423.77
  A 0.39 0.39 0.0 0 0 291.85 423.38
  L 261.96 423.37
  A 0.39 0.39 0.0 0 0 261.57 423.76
  L 261.59 430.83
  A 0.39 0.39 0.0 0 0 261.98 431.22
  L 272.83 431.20
  Z
  M 325.76 430.59
  A 0.35 0.35 0.0 0 1 326.11 430.24
  L 346.06 430.26
  A 0.35 0.35 0.0 0 0 346.41 429.91
  L 346.39 423.72
  A 0.35 0.35 0.0 0 0 346.04 423.37
  L 318.74 423.37
  A 0.35 0.35 0.0 0 0 318.39 423.72
  L 318.39 459.04
  A 0.35 0.35 0.0 0 0 318.74 459.39
  L 346.08 459.39
  A 0.35 0.35 0.0 0 0 346.43 459.04
  L 346.43 452.95
  A 0.35 0.35 0.0 0 0 346.08 452.60
  L 326.09 452.63
  A 0.35 0.35 0.0 0 1 325.74 452.28
  L 325.75 444.79
  A 0.35 0.35 0.0 0 1 326.10 444.44
  L 344.45 444.47
  A 0.35 0.35 0.0 0 0 344.80 444.12
  L 344.78 437.93
  A 0.35 0.35 0.0 0 0 344.43 437.58
  L 326.07 437.66
  A 0.35 0.35 0.0 0 1 325.72 437.31
  L 325.76 430.59
  Z
  M 383.04 459.41
  A 0.34 0.34 0.0 0 0 383.38 459.07
  L 383.37 436.64
  A 0.34 0.34 0.0 0 1 383.98 436.44
  L 400.93 459.24
  A 0.34 0.34 0.0 0 0 401.20 459.38
  L 408.11 459.40
  A 0.34 0.34 0.0 0 0 408.45 459.06
  L 408.45 423.70
  A 0.34 0.34 0.0 0 0 408.11 423.36
  L 401.11 423.36
  A 0.34 0.34 0.0 0 0 400.77 423.70
  L 400.80 445.53
  A 0.34 0.34 0.0 0 1 400.19 445.73
  L 383.53 423.50
  A 0.34 0.34 0.0 0 0 383.26 423.36
  L 376.34 423.38
  A 0.34 0.34 0.0 0 0 376.00 423.72
  L 376.00 459.05
  A 0.34 0.34 0.0 0 0 376.34 459.39
  L 383.04 459.41
  Z
  M 438.61 423.79
  L 438.43 458.85
  A 0.53 0.53 0.0 0 0 438.96 459.38
  L 453.33 459.46
  A 18.58 18.01 0.3 0 0 472.00 441.55
  L 472.00 441.45
  A 18.58 18.01 0.3 0 0 453.51 423.34
  L 439.14 423.27
  A 0.53 0.53 0.0 0 0 438.61 423.79
  Z
  M 404.74 514.25
  C 402.03 492.07 431.43 481.56 444.17 500.67
  Q 444.54 501.22 445.04 500.79
  L 455.34 491.83
  A 0.70 0.69 -39.4 0 0 455.44 490.89
  Q 444.19 475.97 427.02 475.44
  C 410.59 474.93 396.22 484.70 391.16 500.48
  C 383.62 524.01 400.97 547.70 425.07 547.77
  C 437.67 547.81 448.17 542.39 455.45 532.23
  A 0.62 0.62 0.0 0 0 455.35 531.40
  L 444.95 522.32
  A 0.45 0.45 0.0 0 0 444.28 522.41
  C 433.61 538.87 407.19 534.28 404.74 514.25
  Z
  M 169.06 522.64
  C 167.49 512.31 157.02 508.25 148.25 506.25
  Q 142.60 504.96 130.21 502.46
  Q 125.79 501.57 123.97 500.07
  C 118.54 495.59 124.21 490.83 128.76 489.98
  Q 143.86 487.15 158.38 493.73
  A 0.57 0.57 0.0 0 0 159.15 493.43
  L 163.65 482.48
  Q 163.87 481.93 163.32 481.71
  Q 149.88 476.34 135.55 476.76
  C 123.73 477.10 106.85 483.09 107.17 497.82
  C 107.38 507.47 115.57 512.27 123.99 514.47
  Q 132.66 516.74 143.23 518.42
  Q 149.61 519.44 152.77 521.50
  C 158.20 525.04 153.63 532.24 148.78 533.35
  Q 130.10 537.62 113.39 528.59
  Q 112.99 528.38 112.76 528.78
  L 106.71 539.70
  Q 106.45 540.18 106.94 540.42
  Q 128.43 550.80 151.93 545.67
  C 163.18 543.22 170.87 534.57 169.06 522.64
  Z
  M 205.01 525.09
  A 0.32 0.32 0.0 0 1 204.39 525.08
  L 191.83 477.86
  A 0.32 0.32 0.0 0 0 191.52 477.62
  L 177.19 477.60
  A 0.32 0.32 0.0 0 0 176.89 478.01
  L 195.91 545.25
  A 0.32 0.32 0.0 0 0 196.22 545.48
  L 212.22 545.47
  A 0.32 0.32 0.0 0 0 212.53 545.24
  L 224.67 502.25
  A 0.32 0.32 0.0 0 1 225.29 502.26
  L 237.33 545.25
  A 0.32 0.32 0.0 0 0 237.64 545.48
  L 253.72 545.47
  A 0.32 0.32 0.0 0 0 254.03 545.24
  L 273.15 478.04
  A 0.32 0.32 0.0 0 0 272.85 477.63
  L 258.51 477.60
  A 0.32 0.32 0.0 0 0 258.20 477.84
  L 245.60 525.31
  A 0.32 0.32 0.0 0 1 244.99 525.32
  L 231.14 477.83
  A 0.32 0.32 0.0 0 0 230.83 477.60
  L 219.08 477.62
  A 0.32 0.32 0.0 0 0 218.77 477.85
  L 205.01 525.09
  Z
  M 305.24 478.00
  A 0.39 0.39 0.0 0 0 304.85 477.61
  L 290.15 477.61
  A 0.39 0.39 0.0 0 0 289.76 478.00
  L 289.76 545.08
  A 0.39 0.39 0.0 0 0 290.15 545.47
  L 304.85 545.47
  A 0.39 0.39 0.0 0 0 305.24 545.08
  L 305.24 478.00
  Z
  M 357.75 492.60
  A 0.36 0.36 0.0 0 1 358.11 492.24
  L 378.64 492.24
  A 0.36 0.36 0.0 0 0 379.00 491.88
  L 379.00 477.99
  A 0.36 0.36 0.0 0 0 378.64 477.63
  L 321.81 477.62
  A 0.36 0.36 0.0 0 0 321.45 477.98
  L 321.47 491.88
  A 0.36 0.36 0.0 0 0 321.83 492.24
  L 342.64 492.24
  A 0.36 0.36 0.0 0 1 343.00 492.60
  L 343.00 545.12
  A 0.36 0.36 0.0 0 0 343.36 545.48
  L 357.39 545.48
  A 0.36 0.36 0.0 0 0 357.75 545.12
  L 357.75 492.60
  Z
  M 516.64 503.81
  A 0.42 0.42 0.0 0 1 516.22 504.23
  L 485.66 504.23
  A 0.42 0.42 0.0 0 1 485.24 503.81
  L 485.24 478.05
  A 0.42 0.42 0.0 0 0 484.82 477.63
  L 471.42 477.60
  A 0.42 0.42 0.0 0 0 471.00 478.02
  L 471.00 545.06
  A 0.42 0.42 0.0 0 0 471.42 545.48
  L 484.83 545.47
  A 0.42 0.42 0.0 0 0 485.25 545.05
  L 485.24 518.83
  A 0.42 0.42 0.0 0 1 485.66 518.41
  L 516.21 518.39
  A 0.42 0.42 0.0 0 1 516.63 518.81
  L 516.62 545.06
  A 0.42 0.42 0.0 0 0 517.04 545.48
  L 530.34 545.48
  A 0.42 0.42 0.0 0 0 530.76 545.06
  L 530.76 478.04
  A 0.42 0.42 0.0 0 0 530.34 477.62
  L 517.03 477.61
  A 0.42 0.42 0.0 0 0 516.61 478.03
  L 516.64 503.81
  Z
  M 550.19 539.23
  L 551.78 544.70
  A 1.39 1.39 0.0 0 0 554.48 544.62
  Q 555.08 541.93 556.19 539.41
  Q 556.78 538.08 556.75 539.53
  L 556.63 544.80
  Q 556.62 545.49 557.30 545.50
  L 557.88 545.51
  A 0.64 0.64 0.0 0 0 558.52 544.87
  L 558.53 536.40
  A 1.67 1.67 0.0 0 0 555.27 535.88
  L 553.45 541.52
  Q 553.19 542.31 552.86 541.55
  Q 551.72 538.95 551.23 536.14
  A 1.96 1.95 37.0 0 0 547.36 536.68
  Q 547.82 540.91 547.52 544.88
  A 0.56 0.55 3.4 0 0 548.06 545.48
  L 549.04 545.50
  Q 549.59 545.51 549.59 544.97
  L 549.59 539.31
  A 0.31 0.30 37.2 0 1 550.19 539.23
  Z
  M 542.38 537.79
  A 0.41 0.41 0.0 0 1 542.82 537.38
  L 545.10 537.53
  A 0.41 0.41 0.0 0 0 545.53 537.14
  L 545.59 535.59
  A 0.41 0.41 0.0 0 0 545.17 535.16
  L 537.46 535.23
  A 0.41 0.41 0.0 0 0 537.05 535.66
  L 537.13 537.09
  A 0.41 0.41 0.0 0 0 537.55 537.48
  L 540.05 537.43
  A 0.41 0.41 0.0 0 1 540.47 537.84
  L 540.47 545.10
  A 0.41 0.41 0.0 0 0 540.87 545.51
  L 541.94 545.52
  A 0.41 0.41 0.0 0 0 542.36 545.11
  L 542.38 537.79
  Z"
/>
<path d="
  M 293.25 355.65
  A 1.03 1.03 0.0 0 1 292.22 356.68
  L 252.93 356.68
  A 52.80 52.20 -90.0 0 1 200.73 303.88
  L 200.73 168.14
  A 52.80 52.20 -90.0 0 1 252.93 115.34
  L 292.22 115.34
  A 1.03 1.03 0.0 0 1 293.25 116.37
  L 293.25 355.65
  Z
  M 276.66 178.48
  A 27.14 27.14 0.0 0 0 249.52 151.34
  A 27.14 27.14 0.0 0 0 222.38 178.48
  A 27.14 27.14 0.0 0 0 249.52 205.62
  A 27.14 27.14 0.0 0 0 276.66 178.48
  Z"
/>
<circle cx="401.98" cy="250.33" r="28.93"/>
<circle cx="514.22" cy="441.38" r="11.03"/>
<path d="
  M 446.05 431.54
  A 0.54 0.54 0.0 0 1 446.59 431.01
  L 453.49 431.04
  A 10.66 10.13 0.3 0 1 464.10 441.23
  L 464.10 441.57
  A 10.66 10.13 0.3 0 1 453.39 451.64
  L 446.49 451.61
  A 0.54 0.54 0.0 0 1 445.95 451.06
  L 446.05 431.54
  Z"
/>
</g>
<g fill="#ffffff">
<path d="
  M 250.50 379.62
  C 214.14 379.42 183.98 352.56 178.54 317.21
  Q 177.62 311.21 177.62 297.24
  Q 177.60 234.37 177.66 171.50
  Q 177.67 158.33 178.99 151.60
  C 184.83 121.83 208.66 98.66 238.32 93.38
  Q 245.02 92.19 258.24 92.22
  Q 286.58 92.27 314.66 92.22
  A 1.78 1.78 0.0 0 1 316.44 94.00
  L 316.44 377.77
  A 2.00 2.00 0.0 0 1 314.44 379.77
  Q 282.68 379.80 250.50 379.62
  Z
  M 293.25 355.65
  L 293.25 116.37
  A 1.03 1.03 0.0 0 0 292.22 115.34
  L 252.93 115.34
  A 52.80 52.20 -90.0 0 0 200.73 168.14
  L 200.73 303.88
  A 52.80 52.20 -90.0 0 0 252.93 356.68
  L 292.22 356.68
  A 1.03 1.03 0.0 0 0 293.25 355.65
  Z"
/>
<path d="
  M 344.98 94.52
  A 2.53 2.53 0.0 0 1 347.51 91.99
  L 390.32 91.99
  A 76.00 75.22 90.0 0 1 465.54 167.99
  L 465.54 304.01
  A 76.00 75.22 90.0 0 1 390.32 380.01
  L 347.51 380.01
  A 2.53 2.53 0.0 0 1 344.98 377.48
  L 344.98 94.52
  Z
  M 430.91 250.33
  A 28.93 28.93 0.0 0 0 401.98 221.40
  A 28.93 28.93 0.0 0 0 373.05 250.33
  A 28.93 28.93 0.0 0 0 401.98 279.26
  A 28.93 28.93 0.0 0 0 430.91 250.33
  Z"
/>
<circle cx="249.52" cy="178.48" r="27.14"/>
<path d="
  M 533.49 441.38
  A 19.26 19.26 0.0 0 1 514.23 460.64
  A 19.26 19.26 0.0 0 1 494.97 441.38
  A 19.26 19.26 0.0 0 1 514.23 422.12
  A 19.26 19.26 0.0 0 1 533.49 441.38
  Z
  M 525.25 441.38
  A 11.03 11.03 0.0 0 0 514.22 430.35
  A 11.03 11.03 0.0 0 0 503.19 441.38
  A 11.03 11.03 0.0 0 0 514.22 452.41
  A 11.03 11.03 0.0 0 0 525.25 441.38
  Z"
/>
<path d="
  M 134.85 423.34
  L 141.68 423.37
  A 0.33 0.33 0.0 0 1 142.01 423.70
  L 142.01 459.04
  A 0.33 0.33 0.0 0 1 141.68 459.37
  L 134.84 459.39
  A 0.33 0.33 0.0 0 1 134.57 459.26
  L 117.55 436.32
  A 0.33 0.33 0.0 0 0 116.95 436.51
  L 117.01 459.05
  A 0.33 0.33 0.0 0 1 116.68 459.38
  L 109.93 459.42
  A 0.33 0.33 0.0 0 1 109.60 459.09
  L 109.58 423.68
  A 0.33 0.33 0.0 0 1 109.91 423.35
  L 116.94 423.37
  A 0.33 0.33 0.0 0 1 117.20 423.50
  L 133.95 445.91
  A 0.33 0.33 0.0 0 0 134.55 445.72
  L 134.52 423.67
  A 0.33 0.33 0.0 0 1 134.85 423.34
  Z"
/>
<rect x="168.78" y="423.35" width="8.20" height="36.04" rx="0.38"/>
<path d="
  M 211.05 459.41
  L 204.33 459.40
  A 0.33 0.33 0.0 0 1 204.00 459.07
  L 204.00 423.71
  A 0.33 0.33 0.0 0 1 204.33 423.38
  L 211.21 423.36
  A 0.33 0.33 0.0 0 1 211.48 423.49
  L 228.20 445.83
  A 0.33 0.33 0.0 0 0 228.80 445.64
  L 228.77 423.69
  A 0.33 0.33 0.0 0 1 229.10 423.36
  L 235.91 423.37
  A 0.33 0.33 0.0 0 1 236.24 423.70
  L 236.23 459.06
  A 0.33 0.33 0.0 0 1 235.90 459.39
  L 229.15 459.38
  A 0.33 0.33 0.0 0 1 228.88 459.25
  L 211.96 436.47
  A 0.33 0.33 0.0 0 0 211.36 436.67
  L 211.38 459.08
  A 0.33 0.33 0.0 0 1 211.05 459.41
  Z"
/>
<path d="
  M 272.83 431.20
  L 261.98 431.22
  A 0.39 0.39 0.0 0 1 261.59 430.83
  L 261.57 423.76
  A 0.39 0.39 0.0 0 1 261.96 423.37
  L 291.85 423.38
  A 0.39 0.39 0.0 0 1 292.24 423.77
  L 292.23 430.83
  A 0.39 0.39 0.0 0 1 291.84 431.22
  L 281.36 431.20
  A 0.39 0.39 0.0 0 0 280.97 431.59
  L 280.99 459.01
  A 0.39 0.39 0.0 0 1 280.60 459.40
  L 273.61 459.37
  A 0.39 0.39 0.0 0 1 273.22 458.98
  L 273.22 431.59
  A 0.39 0.39 0.0 0 0 272.83 431.20
  Z"
/>
<path d="
  M 325.76 430.59
  L 325.72 437.31
  A 0.35 0.35 0.0 0 0 326.07 437.66
  L 344.43 437.58
  A 0.35 0.35 0.0 0 1 344.78 437.93
  L 344.80 444.12
  A 0.35 0.35 0.0 0 1 344.45 444.47
  L 326.10 444.44
  A 0.35 0.35 0.0 0 0 325.75 444.79
  L 325.74 452.28
  A 0.35 0.35 0.0 0 0 326.09 452.63
  L 346.08 452.60
  A 0.35 0.35 0.0 0 1 346.43 452.95
  L 346.43 459.04
  A 0.35 0.35 0.0 0 1 346.08 459.39
  L 318.74 459.39
  A 0.35 0.35 0.0 0 1 318.39 459.04
  L 318.39 423.72
  A 0.35 0.35 0.0 0 1 318.74 423.37
  L 346.04 423.37
  A 0.35 0.35 0.0 0 1 346.39 423.72
  L 346.41 429.91
  A 0.35 0.35 0.0 0 1 346.06 430.26
  L 326.11 430.24
  A 0.35 0.35 0.0 0 0 325.76 430.59
  Z"
/>
<path d="
  M 383.04 459.41
  L 376.34 459.39
  A 0.34 0.34 0.0 0 1 376.00 459.05
  L 376.00 423.72
  A 0.34 0.34 0.0 0 1 376.34 423.38
  L 383.26 423.36
  A 0.34 0.34 0.0 0 1 383.53 423.50
  L 400.19 445.73
  A 0.34 0.34 0.0 0 0 400.80 445.53
  L 400.77 423.70
  A 0.34 0.34 0.0 0 1 401.11 423.36
  L 408.11 423.36
  A 0.34 0.34 0.0 0 1 408.45 423.70
  L 408.45 459.06
  A 0.34 0.34 0.0 0 1 408.11 459.40
  L 401.20 459.38
  A 0.34 0.34 0.0 0 1 400.93 459.24
  L 383.98 436.44
  A 0.34 0.34 0.0 0 0 383.37 436.64
  L 383.38 459.07
  A 0.34 0.34 0.0 0 1 383.04 459.41
  Z"
/>
<path d="
  M 438.61 423.79
  A 0.53 0.53 0.0 0 1 439.14 423.27
  L 453.51 423.34
  A 18.58 18.01 0.3 0 1 472.00 441.45
  L 472.00 441.55
  A 18.58 18.01 0.3 0 1 453.33 459.46
  L 438.96 459.38
  A 0.53 0.53 0.0 0 1 438.43 458.85
  L 438.61 423.79
  Z
  M 446.05 431.54
  L 445.95 451.06
  A 0.54 0.54 0.0 0 0 446.49 451.61
  L 453.39 451.64
  A 10.66 10.13 0.3 0 0 464.10 441.57
  L 464.10 441.23
  A 10.66 10.13 0.3 0 0 453.49 431.04
  L 446.59 431.01
  A 0.54 0.54 0.0 0 0 446.05 431.54
  Z"
/>
<path d="
  M 444.17 500.67
  C 431.43 481.56 402.03 492.07 404.74 514.25
  C 407.19 534.28 433.61 538.87 444.28 522.41
  A 0.45 0.45 0.0 0 1 444.95 522.32
  L 455.35 531.40
  A 0.62 0.62 0.0 0 1 455.45 532.23
  C 448.17 542.39 437.67 547.81 425.07 547.77
  C 400.97 547.70 383.62 524.01 391.16 500.48
  C 396.22 484.70 410.59 474.93 427.02 475.44
  Q 444.19 475.97 455.44 490.89
  A 0.70 0.69 -39.4 0 1 455.34 491.83
  L 445.04 500.79
  Q 444.54 501.22 444.17 500.67
  Z"
/>
<path d="
  M 169.06 522.64
  C 170.87 534.57 163.18 543.22 151.93 545.67
  Q 128.43 550.80 106.94 540.42
  Q 106.45 540.18 106.71 539.70
  L 112.76 528.78
  Q 112.99 528.38 113.39 528.59
  Q 130.10 537.62 148.78 533.35
  C 153.63 532.24 158.20 525.04 152.77 521.50
  Q 149.61 519.44 143.23 518.42
  Q 132.66 516.74 123.99 514.47
  C 115.57 512.27 107.38 507.47 107.17 497.82
  C 106.85 483.09 123.73 477.10 135.55 476.76
  Q 149.88 476.34 163.32 481.71
  Q 163.87 481.93 163.65 482.48
  L 159.15 493.43
  A 0.57 0.57 0.0 0 1 158.38 493.73
  Q 143.86 487.15 128.76 489.98
  C 124.21 490.83 118.54 495.59 123.97 500.07
  Q 125.79 501.57 130.21 502.46
  Q 142.60 504.96 148.25 506.25
  C 157.02 508.25 167.49 512.31 169.06 522.64
  Z"
/>
<path d="
  M 205.01 525.09
  L 218.77 477.85
  A 0.32 0.32 0.0 0 1 219.08 477.62
  L 230.83 477.60
  A 0.32 0.32 0.0 0 1 231.14 477.83
  L 244.99 525.32
  A 0.32 0.32 0.0 0 0 245.60 525.31
  L 258.20 477.84
  A 0.32 0.32 0.0 0 1 258.51 477.60
  L 272.85 477.63
  A 0.32 0.32 0.0 0 1 273.15 478.04
  L 254.03 545.24
  A 0.32 0.32 0.0 0 1 253.72 545.47
  L 237.64 545.48
  A 0.32 0.32 0.0 0 1 237.33 545.25
  L 225.29 502.26
  A 0.32 0.32 0.0 0 0 224.67 502.25
  L 212.53 545.24
  A 0.32 0.32 0.0 0 1 212.22 545.47
  L 196.22 545.48
  A 0.32 0.32 0.0 0 1 195.91 545.25
  L 176.89 478.01
  A 0.32 0.32 0.0 0 1 177.19 477.60
  L 191.52 477.62
  A 0.32 0.32 0.0 0 1 191.83 477.86
  L 204.39 525.08
  A 0.32 0.32 0.0 0 0 205.01 525.09
  Z"
/>
<rect x="289.76" y="477.61" width="15.48" height="67.86" rx="0.39"/>
<path d="
  M 357.75 492.60
  L 357.75 545.12
  A 0.36 0.36 0.0 0 1 357.39 545.48
  L 343.36 545.48
  A 0.36 0.36 0.0 0 1 343.00 545.12
  L 343.00 492.60
  A 0.36 0.36 0.0 0 0 342.64 492.24
  L 321.83 492.24
  A 0.36 0.36 0.0 0 1 321.47 491.88
  L 321.45 477.98
  A 0.36 0.36 0.0 0 1 321.81 477.62
  L 378.64 477.63
  A 0.36 0.36 0.0 0 1 379.00 477.99
  L 379.00 491.88
  A 0.36 0.36 0.0 0 1 378.64 492.24
  L 358.11 492.24
  A 0.36 0.36 0.0 0 0 357.75 492.60
  Z"
/>
<path d="
  M 516.64 503.81
  L 516.61 478.03
  A 0.42 0.42 0.0 0 1 517.03 477.61
  L 530.34 477.62
  A 0.42 0.42 0.0 0 1 530.76 478.04
  L 530.76 545.06
  A 0.42 0.42 0.0 0 1 530.34 545.48
  L 517.04 545.48
  A 0.42 0.42 0.0 0 1 516.62 545.06
  L 516.63 518.81
  A 0.42 0.42 0.0 0 0 516.21 518.39
  L 485.66 518.41
  A 0.42 0.42 0.0 0 0 485.24 518.83
  L 485.25 545.05
  A 0.42 0.42 0.0 0 1 484.83 545.47
  L 471.42 545.48
  A 0.42 0.42 0.0 0 1 471.00 545.06
  L 471.00 478.02
  A 0.42 0.42 0.0 0 1 471.42 477.60
  L 484.82 477.63
  A 0.42 0.42 0.0 0 1 485.24 478.05
  L 485.24 503.81
  A 0.42 0.42 0.0 0 0 485.66 504.23
  L 516.22 504.23
  A 0.42 0.42 0.0 0 0 516.64 503.81
  Z"
/>
<path d="
  M 549.59 539.31
  L 549.59 544.97
  Q 549.59 545.51 549.04 545.50
  L 548.06 545.48
  A 0.56 0.55 3.4 0 1 547.52 544.88
  Q 547.82 540.91 547.36 536.68
  A 1.96 1.95 37.0 0 1 551.23 536.14
  Q 551.72 538.95 552.86 541.55
  Q 553.19 542.31 553.45 541.52
  L 555.27 535.88
  A 1.67 1.67 0.0 0 1 558.53 536.40
  L 558.52 544.87
  A 0.64 0.64 0.0 0 1 557.88 545.51
  L 557.30 545.50
  Q 556.62 545.49 556.63 544.80
  L 556.75 539.53
  Q 556.78 538.08 556.19 539.41
  Q 555.08 541.93 554.48 544.62
  A 1.39 1.39 0.0 0 1 551.78 544.70
  L 550.19 539.23
  A 0.31 0.30 37.2 0 0 549.59 539.31
  Z"
/>
<path d="
  M 542.38 537.79
  L 542.36 545.11
  A 0.41 0.41 0.0 0 1 541.94 545.52
  L 540.87 545.51
  A 0.41 0.41 0.0 0 1 540.47 545.10
  L 540.47 537.84
  A 0.41 0.41 0.0 0 0 540.05 537.43
  L 537.55 537.48
  A 0.41 0.41 0.0 0 1 537.13 537.09
  L 537.05 535.66
  A 0.41 0.41 0.0 0 1 537.46 535.23
  L 545.17 535.16
  A 0.41 0.41 0.0 0 1 545.59 535.59
  L 545.53 537.14
  A 0.41 0.41 0.0 0 1 545.10 537.53
  L 542.82 537.38
  A 0.41 0.41 0.0 0 0 542.38 537.79
  Z"
/>
</g>
</svg>
