<svg width="142" height="142" viewBox="0 0 142 142" fill="none" xmlns="http://www.w3.org/2000/svg">
<g clip-path="url(#clip0_155_646)">
<path d="M142 0H0V142H142V0Z" fill="white"/>
<path d="M38.1974 37.3396V71.0071V104.801H103.802V71.0071V37.3396H38.1974Z" fill="#ECF0F1"/>
<path d="M87.0455 44.4445C92.448 44.4445 96.8376 48.8481 96.8376 54.2366C96.8376 59.6251 92.2933 63.8881 87.0455 63.8881C84.4849 63.8881 82.0791 62.8892 80.3767 61.1868L87.0455 54.518L79.9406 47.4131C81.6429 45.57 84.2035 44.4304 87.0455 44.4304V44.4445Z" fill="#FFD24D"/>
<path d="M96.5565 77.2537C96.6972 77.5351 96.6972 77.8165 96.6972 78.112C96.6972 78.8154 96.2751 79.3922 95.6983 79.6736C95.4169 79.8143 95.1356 79.8143 94.8401 79.8143C94.1366 79.8143 93.5598 79.3922 93.2784 78.8154C92.8563 77.9572 93.1377 76.8317 94.1366 76.3955C94.418 76.2548 94.6994 76.2548 94.9949 76.2548C95.5576 76.3955 96.2751 76.6769 96.5565 77.2537Z" fill="black"/>
<path d="M96.5565 91.4495C96.6972 91.7309 96.6972 92.0123 96.6972 92.3078C96.6972 93.0112 96.2751 93.588 95.6983 93.8694C95.4169 94.0101 95.1356 94.0101 94.8401 94.0101C94.1366 94.0101 93.5598 93.588 93.2784 93.0112C92.8563 92.153 93.1377 91.0275 94.1366 90.5913C94.418 90.4506 94.6994 90.4506 94.9949 90.4506C95.5576 90.4506 96.2751 90.8727 96.5565 91.4495Z" fill="black"/>
<path d="M96.5565 98.5545C96.6972 98.8358 96.6972 99.1172 96.6972 99.4127C96.6972 100.116 96.2751 100.693 95.6983 100.974C95.4169 101.115 95.1356 101.115 94.8401 101.115C94.1366 101.115 93.5598 100.693 93.2784 100.116C92.8563 99.2579 93.1377 98.1324 94.1366 97.6962C94.418 97.5556 94.6994 97.5555 94.9949 97.5555C95.5576 97.6962 96.2751 97.9776 96.5565 98.5545Z" fill="black"/>
<path d="M89.4657 77.2537C89.6064 77.5351 89.6064 77.8165 89.6064 78.112C89.6064 78.8154 89.1843 79.3922 88.6075 79.6736C88.3261 79.8143 88.0447 79.8143 87.7493 79.8143C87.0458 79.8143 86.469 79.3922 86.1876 78.8154C85.7655 77.9572 86.0469 76.8317 87.0458 76.3955C87.3272 76.2548 87.6086 76.2548 87.904 76.2548C88.4668 76.3955 89.1843 76.6769 89.4657 77.2537Z" fill="black"/>
<path d="M89.4657 91.4495C89.6064 91.7309 89.6064 92.0123 89.6064 92.3078C89.6064 93.0112 89.1843 93.588 88.6075 93.8694C88.3261 94.0101 88.0447 94.0101 87.7493 94.0101C87.0458 94.0101 86.469 93.588 86.1876 93.0112C85.7655 92.153 86.0469 91.0275 87.0458 90.5913C87.3272 90.4506 87.6086 90.4506 87.904 90.4506C88.4668 90.4506 89.1843 90.8727 89.4657 91.4495Z" fill="black"/>
<path d="M82.3604 77.2538C82.5011 77.5352 82.5011 77.8166 82.5011 78.112C82.5011 78.8155 82.079 79.3923 81.5022 79.6737C81.2208 79.8144 80.9394 79.8144 80.6439 79.8144C79.9405 79.8144 79.3636 79.3923 79.0823 78.8155C78.6602 77.9573 78.9416 76.8317 79.9405 76.3956C80.2219 76.2549 80.5032 76.2549 80.7987 76.2549C81.3615 76.3956 82.079 76.677 82.3604 77.2538Z" fill="black"/>
<path d="M82.3604 91.4495C82.5011 91.7309 82.5011 92.0122 82.5011 92.3077C82.5011 93.0111 82.079 93.588 81.5022 93.8694C81.2208 94.0101 80.9394 94.0101 80.6439 94.0101C79.9405 94.0101 79.3636 93.588 79.0823 93.0111C78.6602 92.1529 78.9416 91.0274 79.9405 90.5913C80.2219 90.4506 80.5032 90.4506 80.7987 90.4506C81.3615 90.4506 82.079 90.8726 82.3604 91.4495Z" fill="black"/>
<path d="M78.815 54.2506C78.9557 54.532 78.9557 54.8134 78.9557 55.1088C78.9557 55.8123 78.5336 56.3891 77.9568 56.6705C77.8161 56.8112 77.5347 56.8112 77.2533 56.8112C76.5498 56.8112 75.973 56.3891 75.6916 55.8123C75.2696 54.9541 75.5509 53.8285 76.5498 53.3924C76.8312 53.2517 77.1126 53.2517 77.4081 53.2517C77.8301 53.2517 78.5477 53.6738 78.8291 54.2506H78.815Z" fill="black"/>
<path d="M75.2696 77.2538C75.4102 77.5352 75.4102 77.8166 75.4102 78.112C75.4102 78.8155 74.9882 79.3923 74.4113 79.6737C74.1299 79.8144 73.8486 79.8144 73.5531 79.8144C72.8497 79.8144 72.2728 79.3923 71.9914 78.8155C71.5694 77.9573 71.8507 76.8317 72.8497 76.3956C73.131 76.2549 73.4124 76.2549 73.7079 76.2549C74.2706 76.3956 74.9882 76.677 75.2696 77.2538Z" fill="black"/>
<path d="M75.2696 91.4495C75.4102 91.7309 75.4102 92.0122 75.4102 92.3077C75.4102 93.0111 74.9882 93.588 74.4113 93.8694C74.1299 94.0101 73.8486 94.0101 73.5531 94.0101C72.8497 94.0101 72.2728 93.588 71.9914 93.0111C71.5694 92.1529 71.8507 91.0274 72.8497 90.5913C73.131 90.4506 73.4124 90.4506 73.7079 90.4506C74.2706 90.4506 74.9882 90.8726 75.2696 91.4495Z" fill="black"/>
<path d="M73.4131 70.1488C73.5538 70.4302 73.5538 70.7116 73.5538 71.007C73.5538 71.7105 73.1317 72.2873 72.5549 72.5687C72.2735 72.7094 71.9921 72.7094 71.6967 72.7094C70.9932 72.7094 70.4164 72.2873 70.135 71.7105C69.7129 70.8523 69.9943 69.7267 70.9932 69.2906C71.2746 69.1499 71.556 69.1499 71.8514 69.1499C72.5549 69.2906 73.1317 69.572 73.4131 70.1488Z" fill="black"/>
<path d="M71.7105 54.2507C71.8512 54.5321 71.8512 54.8134 71.8512 55.1089C71.8512 55.8124 71.4291 56.3892 70.8523 56.6706C70.7116 56.8113 70.4302 56.8113 70.1488 56.8113C69.4454 56.8113 68.8685 56.3892 68.5871 55.8124C68.1651 54.9541 68.4464 53.8286 69.4454 53.3925C69.7267 53.2518 70.0081 53.2518 70.3036 53.2518C70.7257 53.2518 71.4432 53.6738 71.7246 54.2507H71.7105Z" fill="black"/>
<path d="M68.1651 77.2537C68.3058 77.5351 68.3057 77.8165 68.3057 78.112C68.3057 78.8154 67.8837 79.3922 67.3068 79.6736C67.0255 79.8143 66.7441 79.8143 66.4486 79.8143C65.7452 79.8143 65.1683 79.3922 64.8869 78.8154C64.4649 77.9572 64.7463 76.8317 65.7452 76.3955C66.0265 76.2548 66.3079 76.2548 66.6034 76.2548C67.1661 76.3955 67.8837 76.6769 68.1651 77.2537Z" fill="black"/>
<path d="M68.1651 91.4495C68.3058 91.7309 68.3057 92.0123 68.3057 92.3078C68.3057 93.0112 67.8837 93.588 67.3068 93.8694C67.0255 94.0101 66.7441 94.0101 66.4486 94.0101C65.7452 94.0101 65.1683 93.588 64.8869 93.0112C64.4649 92.153 64.7463 91.0275 65.7452 90.5913C66.0265 90.4506 66.3079 90.4506 66.6034 90.4506C67.1661 90.4506 67.8837 90.8727 68.1651 91.4495Z" fill="black"/>
<path d="M64.606 54.2506C64.7467 54.532 64.7467 54.8134 64.7467 55.1088C64.7467 55.8123 64.3246 56.3891 63.7478 56.6705C63.6071 56.8112 63.3257 56.8112 63.0443 56.8112C62.3409 56.8112 61.764 56.3891 61.4826 55.8123C61.0606 54.9541 61.342 53.8285 62.3409 53.3924C62.6222 53.2517 62.9036 53.2517 63.1991 53.2517C63.6212 53.2517 64.3387 53.6738 64.6201 54.2506H64.606Z" fill="black"/>
<path d="M61.0606 77.2538C61.2013 77.5352 61.2013 77.8166 61.2013 78.112C61.2013 78.8155 60.7792 79.3923 60.2023 79.6737C59.921 79.8144 59.6396 79.8144 59.3441 79.8144C58.6407 79.8144 58.0638 79.3923 57.7825 78.8155C57.3604 77.9573 57.6418 76.8317 58.6407 76.3956C58.9221 76.2549 59.2034 76.2549 59.4989 76.2549C60.0617 76.3956 60.7792 76.677 61.0606 77.2538Z" fill="black"/>
<path d="M61.0606 91.4495C61.2013 91.7309 61.2013 92.0122 61.2013 92.3077C61.2013 93.0111 60.7792 93.588 60.2023 93.8694C59.921 94.0101 59.6396 94.0101 59.3441 94.0101C58.6407 94.0101 58.0638 93.588 57.7825 93.0111C57.3604 92.1529 57.6418 91.0274 58.6407 90.5913C58.9221 90.4506 59.2034 90.4506 59.4989 90.4506C60.0617 90.4506 60.7792 90.8726 61.0606 91.4495Z" fill="black"/>
<path d="M57.5142 54.2506C57.6549 54.532 57.6549 54.8134 57.6549 55.1088C57.6549 55.8123 57.2328 56.3891 56.656 56.6705C56.5153 56.8112 56.2339 56.8112 55.9525 56.8112C55.2491 56.8112 54.6722 56.3891 54.3908 55.8123C53.9688 54.9541 54.2502 53.8285 55.2491 53.3924C55.5305 53.2517 55.8118 53.2517 56.1073 53.2517C56.5294 53.2517 57.2469 53.6738 57.5283 54.2506H57.5142Z" fill="black"/>
<path d="M53.9552 77.2537C54.0959 77.5351 54.0959 77.8165 54.0959 78.112C54.0959 78.8154 53.6738 79.3922 53.097 79.6736C52.8156 79.8143 52.5342 79.8143 52.2388 79.8143C51.5353 79.8143 50.9585 79.3922 50.6771 78.8154C50.255 77.9572 50.5364 76.8317 51.5353 76.3955C51.8167 76.2548 52.0981 76.2548 52.3935 76.2548C52.9563 76.3955 53.6738 76.6769 53.9552 77.2537Z" fill="black"/>
<path d="M53.9552 91.4495C54.0959 91.7309 54.0959 92.0123 54.0959 92.3078C54.0959 93.0112 53.6738 93.588 53.097 93.8694C52.8156 94.0101 52.5342 94.0101 52.2388 94.0101C51.5353 94.0101 50.9585 93.588 50.6771 93.0112C50.255 92.153 50.5364 91.0275 51.5353 90.5913C51.8167 90.4506 52.0981 90.4506 52.3935 90.4506C52.9563 90.4506 53.6738 90.8727 53.9552 91.4495Z" fill="black"/>
<path d="M50.4097 54.2507C50.5504 54.5321 50.5504 54.8134 50.5504 55.1089C50.5504 55.8124 50.1283 56.3892 49.5515 56.6706C49.4108 56.8113 49.1294 56.8113 48.848 56.8113C48.1446 56.8113 47.5677 56.3892 47.2864 55.8124C46.8643 54.9541 47.1457 53.8286 48.1446 53.3925C48.426 53.2518 48.7073 53.2518 49.0028 53.2518C49.4249 53.2518 50.1424 53.6738 50.4238 54.2507H50.4097Z" fill="black"/>
<path d="M46.8643 77.2537C47.005 77.5351 47.005 77.8165 47.005 78.112C47.005 78.8154 46.5829 79.3922 46.0061 79.6736C45.7247 79.8143 45.4433 79.8143 45.1478 79.8143C44.4444 79.8143 43.8675 79.3922 43.5862 78.8154C43.1641 77.9572 43.4455 76.8317 44.4444 76.3955C44.7258 76.2548 45.0071 76.2548 45.3026 76.2548C45.8654 76.3955 46.5829 76.6769 46.8643 77.2537Z" fill="black"/>
<path d="M46.8643 84.3446C47.005 84.626 47.005 84.9074 47.005 85.2028C47.005 85.9063 46.5829 86.4831 46.0061 86.7645C45.7247 86.9052 45.4433 86.9052 45.1478 86.9052C44.4444 86.9052 43.8675 86.4831 43.5862 85.9063C43.1641 85.0481 43.4455 83.9225 44.4444 83.4864C44.7258 83.3457 45.0071 83.3457 45.3026 83.3457C45.8654 83.3457 46.5829 83.7678 46.8643 84.3446Z" fill="black"/>
<path d="M46.8643 91.4495C47.005 91.7309 47.005 92.0123 47.005 92.3078C47.005 93.0112 46.5829 93.588 46.0061 93.8694C45.7247 94.0101 45.4433 94.0101 45.1478 94.0101C44.4444 94.0101 43.8675 93.588 43.5862 93.0112C43.1641 92.153 43.4455 91.0275 44.4444 90.5913C44.7258 90.4506 45.0071 90.4506 45.3026 90.4506C45.8654 90.4506 46.5829 90.8727 46.8643 91.4495Z" fill="black"/>
<path d="M103.802 72.8501C102.803 72.8501 101.959 71.9919 101.959 71.007V39.056H39.9001V71.007C39.9001 72.006 39.0419 72.8501 38.057 72.8501C37.0722 72.8501 36.214 71.9919 36.214 71.007V37.3536C36.214 36.3547 37.0722 35.5106 38.057 35.5106H103.802C104.801 35.5106 105.645 36.3688 105.645 37.3536V71.007C105.645 72.006 104.787 72.8501 103.802 72.8501Z" fill="black"/>
<path d="M103.802 106.504H38.1977C37.1988 106.504 36.3546 105.645 36.3546 104.66V71.0071C36.3546 70.0082 37.2128 69.164 38.1977 69.164H59.4984C60.4973 69.164 61.3414 70.0222 61.3414 71.0071C61.3414 71.9919 60.4832 72.8501 59.4984 72.8501H39.9V103.099H102.1V72.8501H82.5014C81.5025 72.8501 80.6584 71.9919 80.6584 71.0071C80.6584 70.0222 81.5166 69.164 82.5014 69.164H103.802C104.801 69.164 105.645 70.0222 105.645 71.0071V104.801C105.645 105.659 104.787 106.504 103.802 106.504Z" fill="black"/>
<path d="M105.941 113.608H36.0733C32.3871 113.608 29.2638 110.626 29.2638 106.799V35.2151C29.2638 31.529 32.2465 28.4056 36.0733 28.4056H106.081C109.768 28.4056 112.891 31.3883 112.891 35.2151V81.7981C112.891 82.797 112.033 83.6412 111.048 83.6412C110.063 83.6412 109.205 82.7829 109.205 81.7981V35.2151C109.205 33.5127 107.784 31.9511 105.941 31.9511H36.0733C34.3709 31.9511 32.8092 33.3721 32.8092 35.2151V106.926C32.8092 108.628 34.2302 110.19 36.0733 110.19H106.081C107.784 110.19 109.345 108.769 109.345 106.926V95.8532C109.345 94.8543 110.204 94.0101 111.188 94.0101C112.173 94.0101 113.032 94.8683 113.032 95.8532V106.926C112.75 110.612 109.627 113.594 105.927 113.594L105.941 113.608Z" fill="black"/>
<path d="M87.0453 65.7452C84.0627 65.7452 81.3614 64.6056 79.0963 62.6218C78.8149 62.3404 78.5335 61.7636 78.5335 61.3415C78.5335 60.9194 78.6742 60.3426 79.0963 60.0612L84.4988 54.6587L78.6742 48.834C77.9707 48.1306 77.9707 47.1317 78.6742 46.4141C80.7986 44.149 83.9361 42.728 87.0594 42.728C93.4468 42.728 98.568 47.8351 98.568 54.2366C98.568 60.6381 93.3202 65.7452 87.0594 65.7452H87.0453ZM82.9231 61.0601C84.0627 61.7636 85.4837 62.059 86.9047 62.059C91.3083 62.059 94.8537 58.5136 94.8537 54.11C94.8537 49.7063 91.3083 46.1609 86.9047 46.1609C85.2023 46.1609 83.6406 46.583 82.3603 47.5819L88.185 53.4065C88.8884 54.11 88.8884 55.2496 88.185 55.9671L82.9372 61.0742L82.9231 61.0601Z" fill="black"/>
</g>
<defs>
<clipPath id="clip0_155_646">
<rect width="142" height="142" fill="white"/>
</clipPath>
</defs>
</svg>
