<svg width="142" height="142" viewBox="0 0 142 142" fill="none" xmlns="http://www.w3.org/2000/svg">
<g clip-path="url(#clip0_155_612)">
<path d="M142 0H0V142H142V0Z" fill="white"/>
<path d="M98.836 36.9175H74.6934C69.5863 36.9175 65.464 41.0397 65.464 46.1468V59.3578C68.5873 59.6392 71.4293 61.3415 72.8503 64.3242L80.6587 79.5189H98.836C103.943 79.5189 108.065 75.3966 108.065 70.2895V46.1468C108.065 41.0397 103.943 36.9175 98.836 36.9175Z" fill="#313A52"/>
<path d="M83.9228 85.9203L80.6587 79.5329L72.8504 64.3382C71.2887 61.3556 68.4467 59.6532 65.4641 59.3718C63.7617 59.2311 62.0593 59.5125 60.4976 60.3707L38.9156 71.4432C34.5119 73.8631 32.6688 79.3922 34.934 83.7959L46.0064 105.378C47.5681 108.501 50.8321 110.344 54.2369 110.344C55.6579 110.344 57.0788 110.063 58.4998 109.345L80.0819 98.273C84.4856 96.0079 86.1879 90.4647 83.9228 85.9203Z" fill="#D7DEED"/>
<path d="M39.3377 51.1273C41.3214 51.1273 42.8831 52.689 42.8831 54.6727C42.8831 56.6565 41.3214 58.2182 39.3377 58.2182C37.3539 58.2182 35.7922 56.6565 35.7922 54.6727C35.7922 52.689 37.3539 51.1273 39.3377 51.1273Z" fill="#F14742"/>
<path d="M100.538 93.7288C102.958 93.7288 104.942 95.7125 104.942 98.1324C104.942 100.552 102.958 102.536 100.538 102.536C98.1185 102.536 96.1348 100.552 96.1348 98.1324C96.1348 95.7125 98.1185 93.7288 100.538 93.7288Z" fill="#F14742"/>
<path d="M95.572 45.8655C97.5276 45.8655 99.1175 47.4553 99.1175 49.4109C99.1175 51.3665 97.5276 52.9563 95.572 52.9563C93.6164 52.9563 92.0266 51.3665 92.0266 49.4109C92.0266 47.4553 93.6164 45.8655 95.572 45.8655Z" fill="#F14742"/>
<path d="M77.8168 45.8655C79.7724 45.8655 81.3622 47.4553 81.3622 49.4109C81.3622 51.3665 79.7724 52.9563 77.8168 52.9563C75.8612 52.9563 74.2714 51.3665 74.2714 49.4109C74.2714 47.4553 75.8612 45.8655 77.8168 45.8655Z" fill="#F14742"/>
<path d="M95.572 63.6207C97.5276 63.6207 99.1175 65.2105 99.1175 67.1662C99.1175 69.1218 97.5276 70.7116 95.572 70.7116C93.6164 70.7116 92.0266 69.1218 92.0266 67.1662C92.0266 65.2105 93.6164 63.6207 95.572 63.6207Z" fill="#F14742"/>
<path d="M64.9013 68.0244C66.7444 68.5872 67.7433 70.585 67.1805 72.4281C66.6177 74.2711 64.6199 75.27 62.7768 74.6932C60.9338 74.1304 59.9349 72.1326 60.4976 70.2895C61.0604 68.4465 63.0582 67.4476 64.9013 68.0103V68.0244Z" fill="#F14742"/>
<path d="M60.4976 81.5167C62.3407 82.0795 63.3396 84.0773 62.7768 85.9203C62.214 87.7634 60.2162 88.7623 58.3732 88.1995C56.5301 87.6368 55.5312 85.639 56.094 83.7959C56.6567 81.9528 58.6545 80.9539 60.4976 81.5167Z" fill="#F14742"/>
<path d="M56.235 95.009C58.0781 95.5717 59.077 97.5696 58.5142 99.4126C57.9515 101.256 55.9536 102.255 54.1106 101.692C52.2675 101.129 51.2686 99.1312 51.8314 97.2882C52.3942 95.4451 54.392 94.4462 56.235 95.023V95.009Z" fill="#F14742"/>
<path d="M106.785 31.6697C107.784 31.6697 108.629 32.5279 108.629 33.5127C108.629 34.4976 107.77 35.3558 106.785 35.3558C105.801 35.3558 104.942 34.4976 104.942 33.5127C104.942 32.5279 105.801 31.6697 106.785 31.6697Z" fill="black"/>
<path d="M94.2913 84.9214C95.2902 84.9214 96.1344 85.7796 96.1344 86.7644C96.1344 87.7493 95.2761 88.6075 94.2913 88.6075C93.3065 88.6075 92.4482 87.7493 92.4482 86.7644C92.4482 85.7796 93.3065 84.9214 94.2913 84.9214Z" fill="black"/>
<path d="M85.4844 102.677C86.4833 102.677 87.3275 103.535 87.3275 104.52C87.3275 105.505 86.4693 106.363 85.4844 106.363C84.4996 106.363 83.6414 105.505 83.6414 104.52C83.6414 103.38 84.4996 102.677 85.4844 102.677Z" fill="black"/>
<path d="M57.0929 45.8655C58.0918 45.8655 58.936 46.7237 58.936 47.7085C58.936 48.6934 58.0778 49.5516 57.0929 49.5516C56.1081 49.5516 55.2499 48.6934 55.2499 47.7085C55.2499 46.5689 56.1081 45.8655 57.0929 45.8655Z" fill="black"/>
<path d="M42.883 35.2151C43.8819 35.2151 44.726 36.0733 44.726 37.0581C44.726 38.043 43.8678 38.9012 42.883 38.9012C41.8981 38.9012 41.0399 38.043 41.0399 37.0581C41.0399 35.9185 41.8981 35.2151 42.883 35.2151Z" fill="black"/>
<path d="M35.7922 99.1172C36.7911 99.1172 37.6352 99.9754 37.6352 100.96C37.6352 101.945 36.777 102.803 35.7922 102.803C34.8073 102.803 33.9491 101.945 33.9491 100.96C33.9491 99.8207 34.8073 99.1172 35.7922 99.1172Z" fill="black"/>
<path d="M63.7621 76.6769C63.1993 76.6769 62.6225 76.5362 62.2004 76.3955C59.3585 75.5373 57.7968 72.5547 58.7957 69.7268C59.4992 67.4476 61.497 66.0406 63.9028 66.0406C64.4656 66.0406 65.0424 66.1813 65.4645 66.322C66.8855 66.7441 67.8844 67.743 68.5878 69.0233C69.2913 70.3036 69.2913 71.7246 68.8692 73.1456C68.1658 75.27 66.1679 76.691 63.7621 76.691V76.6769ZM63.7621 69.572C63.0587 69.572 62.3411 69.9941 62.0597 70.8523C61.7784 71.8512 62.3411 72.8361 63.1993 73.1174C63.34 73.1174 63.6214 73.2581 63.7621 73.2581C64.4656 73.2581 65.1831 72.8361 65.4645 71.9778C65.6052 71.5558 65.6052 70.9789 65.3238 70.5569C65.0424 70.1348 64.761 69.8534 64.3249 69.6986C64.1842 69.5579 64.0435 69.5579 63.7621 69.5579V69.572Z" fill="black"/>
<path d="M95.572 54.6728C94.151 54.6728 92.8708 54.11 91.7311 53.1111C89.6067 50.9866 89.6067 47.7085 91.7311 45.5841C92.7301 44.5852 94.151 44.0224 95.572 44.0224C96.993 44.0224 98.2733 44.5852 99.4129 45.5841C100.412 46.583 100.975 47.8492 100.975 49.425C100.975 51.0007 100.412 52.1262 99.4129 53.2658C98.414 54.1241 96.993 54.6868 95.572 54.6868V54.6728ZM95.572 47.5678C95.15 47.5678 94.7138 47.7085 94.2917 48.1306C93.5883 48.834 93.5883 49.9736 94.2917 50.6912C94.5731 50.9726 94.9952 51.2539 95.572 51.2539C96.1489 51.2539 96.4302 51.1133 96.8523 50.6912C97.1337 50.4098 97.4151 49.9877 97.4151 49.4109C97.4151 48.9888 97.2744 48.5527 96.8523 48.1306C96.5709 47.8492 96.1489 47.5678 95.572 47.5678Z" fill="black"/>
<path d="M77.8168 54.6728C76.3958 54.6728 75.1155 54.11 73.9899 53.1111C71.8655 50.9866 71.8655 47.7085 73.9899 45.5841C74.9888 44.5852 76.4098 44.0224 77.8168 44.0224C79.2237 44.0224 80.518 44.5852 81.6576 45.5841C82.6565 46.583 83.2193 47.8492 83.2193 49.425C83.2193 51.0007 82.6565 52.1262 81.6576 53.2658C80.6587 54.1241 79.2377 54.6868 77.8168 54.6868V54.6728ZM77.8168 47.5678C77.3947 47.5678 76.9585 47.7085 76.5365 48.1306C75.833 48.834 75.833 49.9736 76.5365 50.6912C76.8178 50.9726 77.2399 51.2539 77.8168 51.2539C78.3936 51.2539 78.675 51.1133 79.097 50.6912C79.3784 50.4098 79.6598 49.9877 79.6598 49.4109C79.6598 48.9888 79.5191 48.5527 79.097 48.1306C78.8157 47.8492 78.3936 47.5678 77.8168 47.5678Z" fill="black"/>
<path d="M95.572 72.428C94.151 72.428 92.8708 71.8652 91.7311 70.8663C89.6067 68.7419 89.6067 65.4638 91.7311 63.3393C92.7301 62.3404 94.151 61.7776 95.572 61.7776C96.993 61.7776 98.2733 62.3404 99.4129 63.3393C100.412 64.3382 100.975 65.6045 100.975 67.1802C100.975 68.756 100.412 69.8815 99.4129 71.0211C98.414 71.8793 96.993 72.4421 95.572 72.4421V72.428ZM95.572 65.3231C95.15 65.3231 94.7138 65.4638 94.2917 65.8858C93.5883 66.5893 93.5883 67.7289 94.2917 68.4464C94.5731 68.7278 94.9952 69.0092 95.572 69.0092C96.1489 69.0092 96.4302 68.8685 96.8523 68.4464C97.1337 68.165 97.4151 67.743 97.4151 67.1661C97.4151 66.7441 97.2744 66.3079 96.8523 65.8858C96.5709 65.6045 96.1489 65.3231 95.572 65.3231Z" fill="black"/>
<path d="M59.4984 90.1692C58.9357 90.1692 58.3588 90.0286 57.9368 89.8879C55.0948 89.0296 53.5331 86.047 54.532 83.2191C55.2355 80.9399 57.2333 79.533 59.6391 79.533C60.2019 79.533 60.7787 79.6737 61.2008 79.8143C62.6218 80.2364 63.6207 81.2353 64.3242 82.5156C65.0276 83.7959 65.0276 85.2169 64.6055 86.6379C63.7473 88.7623 61.7636 90.1833 59.4984 90.1833V90.1692ZM59.4984 83.0643C58.795 83.0643 58.0775 83.4864 57.7961 84.3446C57.5147 85.3435 58.0775 86.3284 58.9357 86.6097C59.0764 86.6097 59.3578 86.7504 59.4984 86.7504C60.2019 86.7504 60.9194 86.3284 61.2008 85.4701C61.3415 85.0481 61.3415 84.4712 61.0601 84.0492C60.7787 83.6271 60.4974 83.3457 60.0612 83.1909C59.7798 83.0503 59.6391 83.0502 59.4984 83.0502V83.0643Z" fill="black"/>
<path d="M55.095 103.662C54.5323 103.662 53.9554 103.521 53.5334 103.38C52.1124 102.958 51.1135 101.959 50.41 100.679C49.7066 99.3986 49.7065 97.9776 50.1286 96.5566C50.8321 94.2915 52.8299 92.8705 55.2357 92.8705C55.7985 92.8705 56.3753 93.0112 56.7974 93.1519C58.2184 93.5739 59.2173 94.5728 59.9208 95.8531C60.6242 97.1334 60.6242 98.5544 60.2021 99.9754C59.4987 102.241 57.5009 103.662 55.095 103.662ZM55.095 96.5566C54.3916 96.5566 53.6741 96.9787 53.3927 97.8369C53.252 98.259 53.252 98.8358 53.5334 99.2579C53.8147 99.68 54.0961 99.9613 54.5323 100.116C54.673 100.116 54.9543 100.257 55.095 100.257C55.7985 100.257 56.516 99.8347 56.7974 98.9765C56.9381 98.5544 56.9381 97.9776 56.6567 97.5555C56.3753 97.1334 56.0939 96.8521 55.6578 96.6973C55.5171 96.6973 55.2357 96.5566 55.095 96.5566Z" fill="black"/>
<path d="M108.065 72.1326C107.067 72.1326 106.222 71.2743 106.222 70.2895V46.1468C106.222 42.0246 102.958 38.7605 98.8361 38.7605H74.6934C70.5711 38.7605 67.3071 42.0246 67.3071 46.1468V59.3578C67.3071 60.3567 66.4489 61.2008 65.464 61.2008C64.4792 61.2008 63.621 60.3426 63.621 59.3578V46.1468C63.621 40.0408 68.5874 35.2151 74.5527 35.2151H98.6954C104.801 35.2151 109.627 40.1815 109.627 46.1468V70.2895C109.768 71.2884 109.064 72.1326 108.065 72.1326Z" fill="black"/>
<path d="M98.8361 81.376H80.6587C79.6598 81.376 78.8157 80.5178 78.8157 79.5329C78.8157 78.5481 79.6739 77.6899 80.6587 77.6899H98.8361C102.958 77.6899 106.222 74.4258 106.222 70.3036C106.222 69.3047 107.081 68.4605 108.065 68.4605C109.05 68.4605 109.909 69.3187 109.909 70.3036C109.768 76.4096 104.942 81.376 98.8361 81.376Z" fill="black"/>
<path d="M54.2509 112.187C50.1287 112.187 46.3018 109.922 44.4588 106.222L33.3864 84.6401C30.6851 79.2375 32.8236 72.5687 38.0714 69.8675L59.6535 58.795C61.4965 57.7961 63.4803 57.5147 65.6188 57.6554C69.4456 57.9368 72.7237 60.216 74.5668 63.6208L85.6392 85.2028C86.9195 87.7634 87.2009 90.7461 86.3427 93.5881C85.4844 96.43 83.5007 98.6952 80.9401 99.9755L59.358 111.048C57.6556 111.751 55.9533 112.187 54.2509 112.187ZM64.6199 61.2009C63.4803 61.2009 62.3547 61.4822 61.2151 62.0591L39.7738 72.9908C36.0876 74.8339 34.6667 79.3782 36.5097 82.9377L47.5821 104.52C48.8624 107.08 51.423 108.501 54.2509 108.501C55.3905 108.501 56.5301 108.22 57.6556 107.643L79.2377 96.5707C80.9401 95.7125 82.3611 94.1508 82.9239 92.1671C83.4866 90.324 83.3459 88.3262 82.5018 86.4831L71.4294 64.9011C70.2898 62.6218 68.0246 61.0602 65.464 60.9195C65.042 61.2009 64.9013 61.2009 64.6058 61.2009H64.6199Z" fill="black"/>
<path d="M39.3371 60.0753C36.3545 60.0753 33.9346 57.6554 33.9346 54.6727C33.9346 51.69 36.3545 49.2701 39.3371 49.2701C42.3198 49.2701 44.7256 51.69 44.7256 54.6727C44.7256 57.6554 42.165 60.0753 39.3371 60.0753ZM39.3371 52.9703C38.3382 52.9703 37.4941 53.8285 37.4941 54.8134C37.4941 55.7982 38.3523 56.6564 39.3371 56.6564C40.322 56.6564 41.1802 55.7982 41.1802 54.8134C41.1802 53.8285 40.322 52.9703 39.3371 52.9703Z" fill="black"/>
<path d="M100.539 104.379C97.134 104.379 94.292 101.537 94.292 98.1323C94.292 94.7276 97.134 91.8856 100.539 91.8856C103.943 91.8856 106.785 94.7276 106.785 98.1323C106.785 101.537 103.943 104.379 100.539 104.379ZM100.539 95.5717C99.1177 95.5717 97.8374 96.7113 97.8374 98.273C97.8374 99.8347 98.977 100.974 100.539 100.974C102.1 100.974 103.24 99.8347 103.24 98.273C103.24 96.7113 101.96 95.5717 100.539 95.5717Z" fill="black"/>
<path d="M103.24 112.187H37.4945C36.4956 112.187 35.6515 111.329 35.6515 110.344C35.6515 109.36 36.5097 108.501 37.4945 108.501H103.24C104.239 108.501 105.083 109.36 105.083 110.344C104.942 111.343 104.225 112.187 103.24 112.187Z" fill="black"/>
</g>
<defs>
<clipPath id="clip0_155_612">
<rect width="142" height="142" fill="white"/>
</clipPath>
</defs>
</svg>
