<svg width="142" height="142" viewBox="0 0 142 142" fill="none" xmlns="http://www.w3.org/2000/svg">
<g clip-path="url(#clip0_155_524)">
<path d="M142 0H0V142H142V0Z" fill="white"/>
<path d="M78.0979 108.347H60.3567V92.3077L78.0979 108.347Z" fill="#8E725D"/>
<path d="M104.801 58.6544C106.785 58.6544 108.347 60.216 108.347 62.1998C108.347 64.1835 106.785 65.7452 104.801 65.7452C102.818 65.7452 101.256 64.1835 101.256 62.1998C101.256 60.216 102.818 58.6544 104.801 58.6544Z" fill="#8E725D"/>
<path d="M95.0091 94.1508C96.4301 94.1508 97.7104 95.2904 97.7104 96.8521C97.7104 98.2731 96.5708 99.5534 95.0091 99.5534C93.4475 99.5534 92.3079 98.2731 92.3079 96.7114C92.3079 95.2904 93.4475 94.1508 95.0091 94.1508Z" fill="#8E725D"/>
<path d="M83.5004 46.1469V55.0948L67.4475 60.3567H60.3567V46.1469H83.5004Z" fill="#A28671"/>
<path d="M95.8533 33.7941V46.1468H83.5005H60.3568H53.2519H48.0041H40.8991H35.4966V33.7941H95.8533Z" fill="#8E725D"/>
<path d="M48.0041 46.1469H40.8992V108.347H48.0041V46.1469Z" fill="#60534A"/>
<path d="M53.2519 46.1469H60.3569V60.3567V92.3078V108.347H53.2519H48.0042V46.1469H53.2519Z" fill="#73665C"/>
<path d="M87.0459 78.8154C87.0459 83.3598 83.3598 87.0459 78.8154 87.0459C74.2711 87.0459 70.585 83.3598 70.585 78.8154C70.585 74.6932 76.1282 70.1488 78.8154 65.7452C81.5167 70.0081 87.0459 74.6932 87.0459 78.8154Z" fill="#F14742"/>
<path d="M106.504 44.4445C107.503 44.4445 108.347 45.3027 108.347 46.2876C108.347 47.2724 107.489 48.1306 106.504 48.1306C105.519 48.1306 104.661 47.2724 104.661 46.2876C104.661 45.3027 105.519 44.4445 106.504 44.4445Z" fill="black"/>
<path d="M106.504 79.955C107.503 79.955 108.347 80.8132 108.347 81.7981C108.347 82.7829 107.489 83.6411 106.504 83.6411C105.519 83.6411 104.661 82.7829 104.661 81.7981C104.661 80.8132 105.519 79.955 106.504 79.955Z" fill="black"/>
<path d="M90.6055 62.1998C91.6044 62.1998 92.4486 63.058 92.4486 64.0428C92.4486 65.0277 91.5904 65.8859 90.6055 65.8859C89.6207 65.8859 88.7625 65.0277 88.7625 64.0428C88.7625 62.9032 89.6207 62.1998 90.6055 62.1998Z" fill="black"/>
<path d="M78.0979 95.8532C79.0968 95.8532 79.941 96.7114 79.941 97.6963C79.941 98.6811 79.0828 99.5393 78.0979 99.5393C77.1131 99.5393 76.2549 98.6811 76.2549 97.6963C76.3956 96.6974 77.1131 95.8532 78.0979 95.8532Z" fill="black"/>
<path d="M60.3567 110.049C59.3578 110.049 58.5137 109.191 58.5137 108.206V46.1469C58.5137 45.148 59.3719 44.3038 60.3567 44.3038C61.3416 44.3038 62.1998 45.1621 62.1998 46.1469V108.347C62.1998 109.205 61.3416 110.049 60.3567 110.049Z" fill="black"/>
<path d="M40.8992 110.049C39.9003 110.049 39.0562 109.191 39.0562 108.206V46.1469C39.0562 45.148 39.9144 44.3038 40.8992 44.3038C41.8841 44.3038 42.7423 45.1621 42.7423 46.1469V108.347C42.6016 109.205 41.7434 110.049 40.8992 110.049Z" fill="black"/>
<path d="M53.252 67.4476C52.2531 67.4476 51.4089 66.5894 51.4089 65.6045V46.1469C51.4089 45.148 52.2672 44.3038 53.252 44.3038C54.2368 44.3038 55.0951 45.1621 55.0951 46.1469V65.7452C55.0951 66.6034 54.2368 67.4476 53.252 67.4476Z" fill="black"/>
<path d="M48.0042 110.049C47.0053 110.049 46.1611 109.191 46.1611 108.206V46.1469C46.1611 45.148 47.0193 44.3038 48.0042 44.3038C48.989 44.3038 49.8473 45.1621 49.8473 46.1469V108.347C49.7066 109.205 48.8483 110.049 48.0042 110.049Z" fill="black"/>
<path d="M53.252 110.049C52.2531 110.049 51.4089 109.191 51.4089 108.206V90.5913C51.4089 89.5924 52.2672 88.7483 53.252 88.7483C54.2368 88.7483 55.0951 89.6065 55.0951 90.5913V108.347C55.0951 109.205 54.2368 110.049 53.252 110.049Z" fill="black"/>
<path d="M95.8533 48.004H35.4966C34.4977 48.004 33.6536 47.1458 33.6536 46.1609V33.6675C33.6536 32.6686 34.5118 31.8245 35.4966 31.8245H95.8533C96.8522 31.8245 97.6964 32.6827 97.6964 33.6675V46.1609C97.6964 47.1598 96.8381 48.004 95.8533 48.004ZM37.3397 44.4586H94.1369V35.5106H37.3538V44.4586H37.3397Z" fill="black"/>
<path d="M67.4477 62.1998H60.3428C59.3439 62.1998 58.4998 61.3416 58.4998 60.3567C58.4998 59.3719 59.358 58.5136 60.3428 58.5136H67.1523L81.6435 53.6879V46.1609C81.6435 45.162 82.5017 44.3179 83.4866 44.3179C84.4714 44.3179 85.3296 45.1761 85.3296 46.1609V55.1089C85.3296 55.8124 84.9076 56.5299 84.0493 56.8113L67.9964 62.2138C67.8557 62.0731 67.5744 62.2138 67.4337 62.2138L67.4477 62.1998Z" fill="black"/>
<path d="M78.8155 88.7483C73.2723 88.7483 68.8687 84.3446 68.8687 78.8014C68.8687 75.3966 71.5699 72.1326 74.1164 69.0092C75.256 67.5882 76.5363 66.1673 77.3805 64.7463C77.6619 64.1835 78.2387 63.8881 78.9422 63.8881C79.5049 63.8881 80.0818 64.1694 80.5038 64.7463C81.3621 66.0266 82.4876 67.4476 83.6272 69.0092C86.1878 72.1326 88.875 75.3966 88.875 78.8014C88.7343 84.2039 84.3307 88.7483 78.7874 88.7483H78.8155ZM78.8155 68.7278C78.1121 69.5861 77.5353 70.4302 76.8318 71.2884C74.7074 73.849 72.4281 76.691 72.4281 78.8154C72.4281 82.3609 75.2701 85.2028 78.8155 85.2028C82.361 85.2028 85.2029 82.3609 85.2029 78.8154C85.2029 76.691 82.9237 73.9897 80.7993 71.2884C80.0958 70.4302 79.3783 69.5861 78.8155 68.7278Z" fill="black"/>
<path d="M83.5005 67.4476H74.5525C73.5536 67.4476 72.7095 66.5894 72.7095 65.6045C72.7095 64.6197 73.5677 63.7615 74.5525 63.7615H83.5005C84.4994 63.7615 85.3436 64.6197 85.3436 65.6045C85.2029 66.6034 84.3447 67.4476 83.5005 67.4476Z" fill="black"/>
<path d="M78.8155 67.4476C77.8166 67.4476 76.9724 66.5894 76.9724 65.6045V56.7972C76.9724 55.7983 77.8306 54.9542 78.8155 54.9542C79.8003 54.9542 80.6585 55.8124 80.6585 56.7972V65.7452C80.6585 66.6034 79.8003 67.4476 78.8155 67.4476Z" fill="black"/>
<path d="M106.504 110.049H33.7942C32.7953 110.049 31.9512 109.191 31.9512 108.206C31.9512 107.221 32.8094 106.363 33.7942 106.363H106.504C107.503 106.363 108.347 107.221 108.347 108.206C108.347 109.191 107.488 110.049 106.504 110.049Z" fill="black"/>
<path d="M78.098 110.049C77.676 110.049 77.2398 109.908 76.9584 109.627L59.2032 93.574C58.4997 92.8705 58.3449 91.7309 59.0625 91.0134C59.7659 90.31 60.9055 90.1552 61.6231 90.8727L79.3783 106.926C80.0818 107.629 80.2366 108.769 79.519 109.486C79.097 109.908 78.5201 110.049 78.098 110.049Z" fill="black"/>
<path d="M95.0091 101.256C92.5892 101.256 90.6055 99.272 90.6055 96.8521C90.6055 94.4322 92.5892 92.4485 95.0091 92.4485C97.429 92.4485 99.4128 94.4322 99.4128 96.8521C99.4128 99.1313 97.429 101.256 95.0091 101.256ZM95.0091 95.8532C94.587 95.8532 94.1509 96.2753 94.1509 96.7114C94.1509 97.1476 94.573 97.5697 95.0091 97.5697C95.4453 97.5697 95.8673 97.1476 95.8673 96.7114C95.8673 96.2753 95.4453 95.8532 95.0091 95.8532Z" fill="black"/>
<path d="M104.801 67.4476C101.819 67.4476 99.3987 65.0277 99.3987 62.045C99.3987 59.0624 101.819 56.6425 104.801 56.6425C107.784 56.6425 110.204 59.0624 110.204 62.045C110.204 65.0277 107.643 67.4476 104.801 67.4476ZM104.801 60.3426C103.802 60.3426 102.958 61.2009 102.958 62.1857C102.958 63.1705 103.816 64.0288 104.801 64.0288C105.786 64.0288 106.644 63.1705 106.644 62.1857C106.644 61.2009 105.645 60.3426 104.801 60.3426Z" fill="black"/>
</g>
<defs>
<clipPath id="clip0_155_524">
<rect width="142" height="142" fill="none"/>
</clipPath>
</defs>
</svg>
