<svg width="142" height="142" viewBox="0 0 142 142" fill="none" xmlns="http://www.w3.org/2000/svg">
<g clip-path="url(#clip0_155_579)">
<path d="M142 0H0V142H142V0Z" fill="white"/>
<path d="M83.7819 94.5728C85.7656 94.5728 87.3273 96.1345 87.3273 98.1182C87.3273 100.102 85.7656 101.664 83.7819 101.664C81.7981 101.664 80.2365 100.102 80.2365 98.1182C80.2365 96.1345 81.9388 94.5728 83.7819 94.5728Z" fill="#AFB9D2"/>
<path d="M100.679 62.6218C102.1 62.6218 103.38 63.7614 103.38 65.323C103.38 66.8847 102.24 68.0243 100.679 68.0243C99.2578 68.0243 97.9775 66.8847 97.9775 65.323C97.9775 63.7614 99.2578 62.6218 100.679 62.6218Z" fill="#AFB9D2"/>
<path d="M40.3363 39.478C42.7562 39.478 44.7399 41.4618 44.7399 43.8817C44.7399 46.3016 42.7562 48.2853 40.3363 48.2853C37.9164 48.2853 35.9326 46.3016 35.9326 43.8817C35.9326 41.4618 37.9164 39.478 40.3363 39.478Z" fill="#AFB9D2"/>
<path d="M63.7618 46.583C64.0432 47.7226 64.3246 48.8622 64.3246 50.1284C64.3246 56.7972 59.0768 62.3405 52.3939 62.4812C52.1126 61.3416 51.8312 60.216 51.8312 58.9357C51.8312 52.4076 57.2337 46.8644 63.7618 46.583Z" fill="#AFB9D2"/>
<path d="M70.8663 83.5004C69.0233 81.9387 67.8837 79.5189 67.8837 76.8316C67.8837 73.9897 69.164 71.4291 71.2884 69.8674C72.8501 68.7278 74.6931 68.0244 76.8317 68.0244C78.3933 68.0244 79.8143 68.4464 80.9539 69.0233C79.5329 70.5849 78.534 72.7094 78.534 75.1293C78.534 78.534 80.3771 81.5167 83.219 82.9377C81.6574 84.64 79.2375 85.7796 76.691 85.7796C74.5665 85.6389 72.428 84.7807 70.8663 83.5004Z" fill="#AFB9D2"/>
<path d="M85.6246 76.8316C85.6246 79.2515 84.7664 81.3759 83.2047 82.9376C80.3627 81.3759 78.5197 78.5339 78.5197 75.1292C78.5197 72.7093 79.3779 70.5849 80.9395 69.0232C81.5023 69.3046 81.9385 69.586 82.3605 70.0221C84.3443 71.5838 85.6246 74.0037 85.6246 76.8456V76.8316Z" fill="#D7DEED"/>
<path d="M76.6766 57.5146C76.6766 58.0774 76.8173 58.5135 76.8173 59.0763C76.8173 63.4799 74.5381 67.3068 71.1333 69.586C69.1496 70.8663 66.8704 71.5697 64.4646 71.5697C63.1843 71.5697 61.904 71.429 60.7784 71.0069C56.7969 69.7267 53.6735 66.6033 52.548 62.6217C59.2168 62.3403 64.4786 56.9378 64.4786 50.269C64.4786 48.9887 64.3379 47.8491 63.9159 46.7236H64.4786C70.5846 46.5829 75.8324 51.4086 76.6906 57.5146H76.6766Z" fill="#D7DEED"/>
<path d="M105.941 36.9174C107.221 38.1977 107.362 40.1814 106.222 41.6024L100.82 47.9898L99.9617 47.2863L95.5581 42.8827L94.8546 42.0245L101.242 36.6219C102.663 35.623 104.647 35.7637 105.927 36.9033L105.941 36.9174Z" fill="#B3B3B3"/>
<path d="M59.7798 96.7113L53.6738 104.098C51.5494 106.658 48.5667 107.939 45.5841 107.939C42.8828 107.939 40.1956 106.94 38.1977 104.815C33.7941 100.412 34.2162 93.1659 38.9012 89.3391L46.2875 83.2331L46.4282 83.3738L59.7798 96.7254V96.7113Z" fill="#5B5A57"/>
<path d="M64.3239 71.4291C66.7438 71.4291 69.1496 70.7256 70.9927 69.4453L71.2741 69.7267C69.1496 71.2884 67.8693 73.849 67.8693 76.6909C67.8693 79.5329 69.0089 81.798 70.852 83.3597L59.7796 96.5706L46.4279 83.219L46.2872 83.0783L60.6237 71.007C61.7633 71.2884 63.0436 71.4291 64.3098 71.4291H64.3239Z" fill="#747371"/>
<path d="M71.0071 69.4454C74.4118 67.1662 76.691 63.3393 76.691 58.9357C76.691 58.3729 76.691 57.7961 76.5503 57.374L94.7277 42.0386L95.4311 42.8969L99.8348 47.3005L100.693 48.004L82.375 69.8674C81.9529 69.4454 81.376 69.164 80.954 68.8685C79.6737 68.1651 78.2527 67.8696 76.8317 67.8696C74.7073 67.8696 72.8501 68.5731 71.2885 69.7127L71.0071 69.4313V69.4454Z" fill="#747371"/>
<path d="M97.9779 85.6249C98.9769 85.6249 99.821 86.4831 99.821 87.4679C99.821 88.4528 98.9628 89.311 97.9779 89.311C96.9931 89.311 96.1349 88.4528 96.1349 87.4679C96.2756 86.469 97.1338 85.6249 97.9779 85.6249Z" fill="black"/>
<path d="M83.7818 39.478C84.7807 39.478 85.6248 40.3362 85.6248 41.3211C85.6248 42.3059 84.7666 43.1641 83.7818 43.1641C82.7969 43.1641 81.9387 42.3059 81.9387 41.3211C82.0794 40.3222 82.9376 39.478 83.7818 39.478Z" fill="black"/>
<path d="M69.5863 96.2753C70.5853 96.2753 71.4294 97.1335 71.4294 98.1183C71.4294 99.1032 70.5712 99.9614 69.5863 99.9614C68.6015 99.9614 67.7433 99.1032 67.7433 98.1183C67.884 97.1194 68.7422 96.2753 69.5863 96.2753Z" fill="black"/>
<path d="M57.2338 34.2302C58.2327 34.2302 59.0769 35.0884 59.0769 36.0733C59.0769 37.0581 58.2186 37.9163 57.2338 37.9163C56.249 37.9163 55.3907 37.0581 55.3907 36.0733C55.3907 34.9337 56.249 34.2302 57.2338 34.2302Z" fill="black"/>
<path d="M43.0238 62.6218C44.0228 62.6218 44.8669 63.48 44.8669 64.4649C44.8669 65.4497 44.0087 66.3079 43.0238 66.3079C42.039 66.3079 41.1808 65.309 41.1808 64.3242C41.1808 63.3394 42.039 62.6218 43.0238 62.6218Z" fill="black"/>
<path d="M59.7799 98.273C59.3578 98.273 58.9217 98.1323 58.4996 97.7103L45.148 84.3586C44.4445 83.6552 44.4445 82.5156 45.148 81.798C45.8514 81.0946 46.991 81.0946 47.7085 81.798L61.0602 95.1497C61.7636 95.8531 61.7636 96.9927 61.0602 97.7103C60.6381 98.1323 60.202 98.273 59.7799 98.273Z" fill="black"/>
<path d="M99.9755 49.1295C99.5534 49.1295 99.1172 48.9888 98.6952 48.5667L94.2915 44.1631C93.5881 43.4596 93.5881 42.32 94.2915 41.6025C94.995 40.899 96.1346 40.899 96.8521 41.6025L101.256 46.0061C101.959 46.7096 101.959 47.8492 101.256 48.5667C100.834 48.9888 100.398 49.1295 99.9755 49.1295Z" fill="black"/>
<path d="M82.3611 71.7105C81.939 71.7105 81.5029 71.5698 81.2215 71.2884C80.518 70.7256 80.3633 69.586 80.9401 68.7278L104.661 40.4629C105.223 39.7594 105.223 38.7605 104.52 38.1837C103.957 37.6209 102.958 37.4802 102.241 38.043L77.8168 58.7809C77.1133 59.3437 76.1144 59.3437 75.3969 58.6402C74.6934 57.9368 74.6934 56.7972 75.3969 56.0796L75.5375 55.9389L100.102 35.201C102.227 33.4986 105.209 33.6393 107.207 35.4824C109.191 37.4661 109.332 40.4488 107.489 42.5873L83.6273 70.9929C83.3459 71.415 82.7691 71.6964 82.347 71.6964L82.3611 71.7105Z" fill="black"/>
<path d="M45.5841 109.627C42.32 109.627 39.1967 108.347 36.9175 106.081C34.4976 103.662 33.2313 100.257 33.372 96.852C33.5127 93.4473 35.2151 90.1833 37.7757 88.0447L59.4985 69.586C60.2019 69.0232 61.3415 69.0232 62.059 69.8674C62.6218 70.5708 62.6218 71.7104 61.7777 72.428L40.0549 90.6053C38.2118 92.167 36.9315 94.4462 36.9315 96.852C36.7908 99.2719 37.7898 101.678 39.4921 103.38C41.1945 105.082 43.333 105.941 45.5981 105.941C48.1587 105.941 50.7052 104.801 52.4076 102.817L69.586 82.3608C69.586 82.3608 69.586 82.2201 69.7267 82.2201C70.4302 81.5166 71.5698 81.5166 72.2873 82.2201C72.9908 82.9236 72.9908 83.9225 72.428 84.64L55.1089 105.097C52.689 107.939 49.2843 109.641 45.5981 109.641L45.5841 109.627Z" fill="black"/>
<path d="M52.3939 64.3241C51.395 64.3241 50.6915 63.6206 50.6915 62.6217C50.6915 61.6228 51.395 60.7787 52.3939 60.7787C58.0778 60.4973 62.6222 55.8123 62.6222 50.1283C62.6222 49.1294 62.4815 48.1446 62.2001 47.1457C61.9187 46.1467 62.4815 45.1619 63.3397 44.8665C64.3386 44.5851 65.3235 45.1478 65.6189 46.0061C66.041 47.2864 66.1817 48.7073 66.1817 49.9876C66.041 57.796 60.0757 64.0427 52.408 64.3241H52.3939Z" fill="black"/>
<path d="M83.219 84.64C82.9377 84.64 82.6563 84.6401 82.3608 84.4994C78.8154 82.6563 76.6769 79.0968 76.6769 75.1293C76.6769 72.428 77.6758 69.8815 79.5189 67.8837C80.2223 67.1802 81.3619 67.1802 82.0794 67.743C82.7829 68.4465 82.7829 69.5861 82.2201 70.3036C80.9398 71.5839 80.3771 73.2862 80.3771 75.1293C80.3771 77.8306 81.7981 80.0957 84.2179 81.376C85.0762 81.7981 85.3576 82.9377 84.9214 83.7959C84.4993 84.3587 83.9225 84.6541 83.219 84.6541V84.64Z" fill="black"/>
<path d="M64.3238 73.2721C62.9028 73.2721 61.4819 73.1314 60.0609 72.7093C55.5165 71.2884 51.9711 67.7429 50.6908 63.1986C50.2687 61.9183 50.1281 60.4973 50.1281 59.217C50.1281 51.5493 56.0934 45.3026 63.7611 45.0212H64.3238C71.4288 45.0212 77.5348 50.269 78.3789 57.374C78.5196 57.9367 78.5196 58.5136 78.5196 59.217C78.5196 64.0427 76.0997 68.5871 71.9915 71.1477C69.7123 72.428 67.0251 73.2721 64.3238 73.2721ZM64.3238 48.426H63.9018C58.2178 48.7074 53.6735 53.3924 53.6735 59.0763C53.6735 60.0752 53.8142 61.0601 54.0956 62.059C55.0945 65.4637 57.7817 68.165 61.2005 69.1639C62.1994 69.4453 63.3249 69.586 64.3238 69.586C66.3076 69.586 68.4461 69.0232 70.1485 67.8836C73.2718 65.8999 74.9742 62.6358 74.9742 58.9356C74.9742 58.5136 74.9742 58.0774 74.8335 57.5147C74.2707 52.4075 69.7264 48.426 64.3238 48.426Z" fill="black"/>
<path d="M76.677 87.482C74.1164 87.482 71.5699 86.4831 69.7127 84.9214C67.4335 82.9376 66.0266 79.955 66.0266 76.8316C66.0266 73.7083 67.4476 70.4442 70.1489 68.4464C71.9919 67.0254 74.2711 66.1813 76.677 66.1813C78.3793 66.1813 80.0817 66.6033 81.6434 67.4616C82.2061 67.743 82.783 68.165 83.3457 68.6012C85.9063 70.5849 87.3273 73.7083 87.3273 76.8316C87.3273 79.5329 86.3284 82.0794 84.4853 84.0772C82.5016 86.2017 79.6596 87.482 76.677 87.482ZM76.677 69.7267C75.1153 69.7267 73.5536 70.2895 72.2733 71.2884C70.5709 72.7094 69.572 74.6931 69.572 76.8316C69.572 78.8154 70.4303 80.8132 71.9919 82.2201C73.2722 83.3597 74.9746 83.9225 76.677 83.9225C78.6607 83.9225 80.5038 83.0643 81.7841 81.6573C83.0644 80.3771 83.7678 78.6747 83.7678 76.8316C83.7678 74.7072 82.7689 72.7094 81.2072 71.2884C80.9258 71.007 80.5038 70.7256 80.0676 70.5849C79.0687 70.0222 77.9432 69.7267 76.6629 69.7267H76.677Z" fill="black"/>
<path d="M83.7822 103.38C80.7995 103.38 78.3937 100.96 78.3937 97.9776C78.3937 94.995 80.8136 92.5751 83.7822 92.5751C86.7508 92.5751 89.1847 94.995 89.1847 97.9776C89.1847 100.96 86.7648 103.38 83.7822 103.38ZM83.7822 96.2753C82.7833 96.2753 81.9391 97.1335 81.9391 98.1183C81.9391 99.1032 82.7973 99.9614 83.7822 99.9614C84.767 99.9614 85.6252 99.1032 85.6252 98.1183C85.6252 97.1335 84.767 96.2753 83.7822 96.2753Z" fill="black"/>
<path d="M100.679 69.7267C98.2593 69.7267 96.2755 67.743 96.2755 65.3231C96.2755 62.9032 98.2593 60.9194 100.679 60.9194C103.099 60.9194 105.083 62.9032 105.083 65.3231C105.083 67.743 103.099 69.7267 100.679 69.7267ZM100.679 64.3242C100.257 64.3242 99.8209 64.7462 99.8209 65.1824C99.8209 65.6185 100.243 66.0406 100.679 66.0406C101.115 66.0406 101.537 65.6185 101.537 65.1824C101.537 64.7462 101.256 64.3242 100.679 64.3242Z" fill="black"/>
<path d="M40.3367 50.1284C36.9319 50.1284 34.09 47.2865 34.09 43.8817C34.09 40.477 36.9319 37.635 40.3367 37.635C43.7414 37.635 46.5834 40.477 46.5834 43.8817C46.5834 47.2865 43.7414 50.1284 40.3367 50.1284ZM40.3367 41.3211C38.9157 41.3211 37.6354 42.4607 37.6354 44.0224C37.6354 45.4434 38.775 46.7237 40.3367 46.7237C41.8983 46.7237 43.038 45.5841 43.038 44.0224C43.038 42.4607 41.8983 41.3211 40.3367 41.3211Z" fill="black"/>
</g>
<defs>
<clipPath id="clip0_155_579">
<rect width="142" height="142" fill="white"/>
</clipPath>
</defs>
</svg>
