<svg xmlns="http://www.w3.org/2000/svg" width="142" height="142" viewBox="0 0 142 142" fill="none">
  <g clip-path="url(#clip0_155_556)">
    <path d="M142 0H0V142H142V0Z" fill="white"/>
    <path d="M90.4501 47.1457C84.3441 41.0397 75.9729 37.1989 66.5888 37.1989C47.9894 37.1989 32.7947 52.2528 32.7947 70.993C32.7947 89.7331 47.8487 104.787 66.5888 104.787C75.9589 104.787 84.3441 100.946 90.4501 94.8402L66.5888 70.9789L90.4501 47.1176V47.1457Z" fill="#FFD24D"/>
    <path d="M105.659 33.7941C107.643 33.7941 109.204 35.3557 109.204 37.3395C109.204 39.3232 107.643 40.8849 105.659 40.8849C103.675 40.8849 102.114 39.3232 102.114 37.3395C102.114 35.3557 103.675 33.7941 105.659 33.7941Z" fill="#3C3B3D"/>
    <path d="M99.3985 102.958C100.82 102.958 102.1 104.098 102.1 105.659C102.1 107.08 100.96 108.361 99.3985 108.361C97.8369 108.361 96.6973 107.221 96.6973 105.659C96.6973 104.098 97.9776 102.958 99.3985 102.958Z" fill="#3C3B3D"/>
    <path d="M63.9017 46.1468C66.3216 46.1468 68.3053 48.1305 68.3053 50.5504C68.3053 52.9703 66.3216 54.9541 63.9017 54.9541C61.4818 54.9541 59.498 52.9703 59.498 50.5504C59.498 48.1305 61.4818 46.1468 63.9017 46.1468Z" fill="#3C3B3D"/>
    <path d="M109.204 93.7287V93.8694C109.204 94.7276 108.501 95.5718 107.643 95.5718H107.502C106.644 95.5718 105.8 94.8683 105.8 94.0101V93.8694C105.8 93.0112 106.503 92.167 107.361 92.167C108.219 92.0263 109.064 92.7298 109.204 93.7287Z" fill="black"/>
    <path d="M95.1489 37.0581V37.1988C95.1489 38.057 94.4454 38.9012 93.5872 38.9012H93.4465C92.5883 38.9012 91.7441 38.1977 91.7441 37.3395V37.1988C91.7441 36.3406 92.4476 35.4964 93.3058 35.4964C94.164 35.3557 95.0082 36.0592 95.1489 37.0581Z" fill="black"/>
    <path d="M41.7426 35.3558V35.4965C41.7426 36.3547 41.0392 37.1988 40.1809 37.1988H40.0403C39.182 37.1988 38.3379 36.4954 38.3379 35.6372V35.4965C38.3379 34.6382 39.0413 33.7941 39.8996 33.7941C40.7578 33.6534 41.6019 34.3569 41.7426 35.3558Z" fill="black"/>
    <path d="M39.7593 100.96C40.7582 100.82 41.6024 101.523 41.7431 102.522V102.663C41.7431 103.521 41.0396 104.365 40.1814 104.365H40.0407C39.1825 104.365 38.3383 103.662 38.3383 102.803V102.663C38.1976 101.804 38.9011 101.101 39.7593 100.96Z" fill="black"/>
    <path d="M66.6029 106.503C47.0046 106.503 31.1064 90.6053 31.1064 71.007C31.1064 51.4086 47.0046 35.5105 66.6029 35.5105C76.1137 35.5105 85.0617 39.1966 91.7445 45.8795C92.448 46.5829 92.448 47.7225 91.7445 48.4401L69.0228 71.0211L91.6038 93.6021C92.3073 94.3055 92.3073 95.4451 91.6038 96.1626C84.935 102.831 76.1277 106.532 66.617 106.532L66.6029 106.503ZM66.6029 39.0559C48.9883 39.0559 34.6519 53.3924 34.6519 71.007C34.6519 88.6216 48.9883 102.958 66.6029 102.958C74.552 102.958 82.079 100.116 87.9036 94.8683L65.3226 72.2873C64.6192 71.5838 64.6192 70.4442 65.3226 69.7267L87.9036 47.1457C81.9383 41.8979 74.552 39.0559 66.6029 39.0559Z" fill="black"/>
    <path d="M64.7602 97.6961C51.1272 97.6961 39.9141 86.483 39.9141 72.85C39.9141 71.8511 40.7723 71.007 41.7571 71.007C42.742 71.007 43.6002 71.8652 43.6002 72.85C43.6002 84.64 53.1109 94.1507 64.9009 94.1507C65.8998 94.1507 66.7439 95.0089 66.7439 95.9938C66.6033 96.852 65.745 97.6961 64.7602 97.6961Z" fill="black"/>
    <path d="M63.902 56.7971C60.4972 56.7971 57.6553 53.9552 57.6553 50.5504C57.6553 47.1457 60.4972 44.3037 63.902 44.3037C67.3067 44.3037 70.1487 47.1457 70.1487 50.5504C70.1487 53.9552 67.3067 56.7971 63.902 56.7971ZM63.902 47.9898C62.481 47.9898 61.2007 49.1294 61.2007 50.6911C61.2007 52.2528 62.3403 53.3924 63.902 53.3924C65.4637 53.3924 66.6033 52.2528 66.6033 50.6911C66.6033 49.1294 65.323 47.9898 63.902 47.9898Z" fill="black"/>
    <path d="M80.7984 74.5524C78.8146 74.5524 77.2529 72.9907 77.2529 71.007C77.2529 69.0232 78.8146 67.4615 80.7984 67.4615C82.7821 67.4615 84.3438 69.0232 84.3438 71.007C84.3438 72.9907 82.7821 74.5524 80.7984 74.5524Z" fill="black"/>
    <path d="M89.606 74.5525C87.6222 74.5525 86.0605 72.9908 86.0605 71.007C86.0605 69.0233 87.6222 67.4616 89.606 67.4616C91.5897 67.4616 93.1514 69.0233 93.1514 71.007C93.1514 72.9908 91.5897 74.5525 89.606 74.5525Z" fill="black"/>
    <path d="M98.554 74.5525C96.5702 74.5525 95.0085 72.9908 95.0085 71.007C95.0085 69.0233 96.5702 67.4616 98.554 67.4616C100.538 67.4616 102.099 69.0233 102.099 71.007C102.099 72.9908 100.538 74.5525 98.554 74.5525Z" fill="black"/>
    <path d="M107.361 74.5524C105.377 74.5524 103.815 72.9907 103.815 71.007C103.815 69.0232 105.377 67.4615 107.361 67.4615C109.345 67.4615 110.906 69.0232 110.906 71.007C110.906 72.9907 109.345 74.5524 107.361 74.5524Z" fill="black"/>
    <path d="M99.3978 110.049C96.9779 110.049 94.9941 108.065 94.9941 105.645C94.9941 103.225 96.9779 101.242 99.3978 101.242C101.818 101.242 103.801 103.225 103.801 105.645C103.801 108.065 101.818 110.049 99.3978 110.049ZM99.3978 104.801C98.9757 104.801 98.5396 105.223 98.5396 105.659C98.5396 106.095 98.9616 106.518 99.3978 106.518C99.8339 106.518 100.256 106.095 100.256 105.659C100.256 105.097 99.8339 104.801 99.3978 104.801Z" fill="black"/>
    <path d="M105.659 42.6014C102.677 42.6014 100.257 40.1815 100.257 37.1988C100.257 34.2162 102.677 31.7963 105.659 31.7963C108.642 31.7963 111.062 34.2162 111.062 37.1988C111.062 40.1815 108.501 42.6014 105.659 42.6014ZM105.659 35.4965C104.66 35.4965 103.816 36.3547 103.816 37.3395C103.816 38.3244 104.675 39.1826 105.659 39.1826C106.644 39.1826 107.502 38.3244 107.502 37.3395C107.362 36.3406 106.644 35.4965 105.659 35.4965Z" fill="black"/>
  </g>
  <defs>
    <clipPath id="clip0_155_556">
      <rect width="142" height="142" fill="white"/>
    </clipPath>
  </defs>
</svg>
