<svg xmlns="http://www.w3.org/2000/svg" width="41" height="41" viewBox="0 0 41 41" fill="none">
  <g clip-path="url(#clip0_56_194)">
    <g filter="url(#filter0_d_56_194)">
      <path fill-rule="evenodd" clip-rule="evenodd" d="M16.8623 8.60669C12.444 8.60669 8.8623 12.1884 8.8623 16.6067C8.8623 21.025 12.444 24.6067 16.8623 24.6067C21.2806 24.6067 24.8623 21.025 24.8623 16.6067C24.8623 12.1884 21.2806 8.60669 16.8623 8.60669ZM4.8623 16.6067C4.8623 9.97927 10.2349 4.60669 16.8623 4.60669C23.4897 4.60669 28.8623 9.97927 28.8623 16.6067C28.8623 19.1983 28.0407 21.5981 26.6438 23.5598L36.2765 33.1925C37.0576 33.9735 37.0576 35.2399 36.2765 36.0209C35.4955 36.802 34.2291 36.802 33.4481 36.0209L23.8154 26.3882C21.8537 27.7851 19.454 28.6067 16.8623 28.6067C10.2349 28.6067 4.8623 23.2341 4.8623 16.6067Z" fill="#EFEEEE"/>
    </g>
  </g>
  <defs>
    <filter id="filter0_d_56_194" x="2.8623" y="4.60669" width="40" height="40" filterUnits="userSpaceOnUse" color-interpolation-filters="sRGB">
      <feFlood flood-opacity="0" result="BackgroundImageFix"/>
      <feColorMatrix in="SourceAlpha" type="matrix" values="0 0 0 0 0 0 0 0 0 0 0 0 0 0 0 0 0 0 127 0" result="hardAlpha"/>
      <feOffset dx="2" dy="4"/>
      <feGaussianBlur stdDeviation="2"/>
      <feComposite in2="hardAlpha" operator="out"/>
      <feColorMatrix type="matrix" values="0 0 0 0 0 0 0 0 0 0 0 0 0 0 0 0 0 0 0.25 0"/>
      <feBlend mode="normal" in2="BackgroundImageFix" result="effect1_dropShadow_56_194"/>
      <feBlend mode="normal" in="SourceGraphic" in2="effect1_dropShadow_56_194" result="shape"/>
    </filter>
    <clipPath id="clip0_56_194">
      <rect width="40" height="40" fill="white" transform="translate(0.862305 0.606689)"/>
    </clipPath>
  </defs>
</svg>
