<svg width="20" height="20" viewBox="0 0 20 20" fill="none" xmlns="http://www.w3.org/2000/svg">
<path d="M15.6002 5.68007L15.6039 5.68622L15.6078 5.69221C16.7236 7.39005 17.4078 9.53586 17.615 11.3889C17.7186 12.315 17.7011 13.1517 17.5682 13.8122C17.4334 14.4815 17.1931 14.909 16.9062 15.1087C16.6453 15.2748 16.2647 15.2535 15.6962 14.9722C15.1377 14.6959 14.5087 14.2222 13.8443 13.6894C13.6923 13.5676 13.5384 13.4426 13.3838 13.3169C12.8756 12.9041 12.3589 12.4843 11.8721 12.1455C11.5526 11.9231 11.2344 11.7272 10.9274 11.5861C10.6227 11.446 10.3079 11.35 10.0003 11.35C9.69303 11.35 9.37697 11.4459 9.07028 11.5856C8.76101 11.7265 8.43954 11.9221 8.11615 12.1444C7.61456 12.4891 7.08145 12.9174 6.55867 13.3374C6.41136 13.4558 6.26487 13.5735 6.12013 13.6884C5.44904 14.2216 4.81628 14.696 4.26133 14.9727C3.68838 15.2584 3.32877 15.2698 3.09862 15.1116C2.80989 14.9131 2.56791 14.4847 2.43252 13.8122C2.29954 13.1517 2.2821 12.315 2.38567 11.3889C2.59292 9.53586 3.27711 7.39005 4.39283 5.69221L4.39677 5.68622L4.40046 5.68007C4.92364 4.80811 5.89439 4.35 7.00034 4.35H13.0003C14.1063 4.35 15.077 4.80811 15.6002 5.68007ZM8.00034 9.35H8.35034V9V8V7.65H8.00034H7.35034V7V6.65H7.00034H6.00034H5.65034V7V7.65H5.00034H4.65034V8V9V9.35H5.00034H5.65034V10V10.35H6.00034H7.00034H7.35034V10V9.35H8.00034ZM12.5003 10.75C13.1936 10.75 13.7503 10.1933 13.7503 9.5C13.7503 8.8067 13.1936 8.25 12.5003 8.25C11.807 8.25 11.2503 8.8067 11.2503 9.5C11.2503 10.1933 11.807 10.75 12.5003 10.75ZM14.4003 8.75C15.0936 8.75 15.6503 8.1933 15.6503 7.5C15.6503 6.8067 15.0936 6.25 14.4003 6.25C13.707 6.25 13.1503 6.8067 13.1503 7.5C13.1503 8.1933 13.707 8.75 14.4003 8.75Z" stroke="white" stroke-width="0.7"/>
</svg>
