<svg width="17" height="17" viewBox="0 0 17 17" fill="none" xmlns="http://www.w3.org/2000/svg">
<g clip-path="url(#clip0_210_1314)">
<path d="M1.82103 10.3215V15.7857C1.82103 15.9468 1.88499 16.1012 1.99885 16.2151C2.11272 16.3289 2.26715 16.3929 2.42817 16.3929H14.571C14.7321 16.3929 14.8865 16.3289 15.0003 16.2151C15.1142 16.1012 15.1782 15.9468 15.1782 15.7857V10.3215M9.71388 10.3215V16.3929M1.82103 12.1429H9.71388M16.3925 4.85718L14.571 0.607178H2.42817L0.606741 4.85718H16.3925ZM16.3925 4.85718V6.07146C16.3925 6.71556 16.1366 7.33328 15.6811 7.78872C15.2257 8.24417 14.608 8.50003 13.9639 8.50003H13.6603C13.0162 8.50003 12.3985 8.24417 11.9431 7.78872C11.4876 7.33328 11.2317 6.71556 11.2317 6.07146M5.76746 4.85718V6.07146M5.76746 6.07146C5.76746 6.71556 5.51159 7.33328 5.05614 7.78872C4.6007 8.24417 3.98298 8.50003 3.33888 8.50003H2.99888C2.35479 8.50003 1.73707 8.24417 1.28162 7.78872C0.826179 7.33328 0.570313 6.71556 0.570312 6.07146V4.85718M5.76746 6.07146C5.76746 6.71556 6.02332 7.33328 6.47877 7.78872C6.93421 8.24417 7.55193 8.50003 8.19603 8.50003H8.80317C9.44727 8.50003 10.065 8.24417 10.5204 7.78872C10.9759 7.33328 11.2317 6.71556 11.2317 6.07146M11.2317 4.85718V6.07146" stroke="white" stroke-linecap="round" stroke-linejoin="round"/>
</g>
<defs>
<clipPath id="clip0_210_1314">
<rect width="17" height="17" fill="white"/>
</clipPath>
</defs>
</svg>
