<svg width="17" height="17" viewBox="0 0 17 17" fill="none" xmlns="http://www.w3.org/2000/svg">
<path d="M9.20866 2.83329V4.72454L8.50033 5.43288L7.79199 4.72454V2.83329H9.20866ZM14.167 7.79163V9.20829H12.2757L11.5674 8.49996L12.2757 7.79163H14.167ZM4.72491 7.79163L5.43324 8.49996L4.72491 9.20829H2.83366V7.79163H4.72491ZM8.50033 11.567L9.20866 12.2754V14.1666H7.79199V12.2754L8.50033 11.567ZM10.6253 1.41663H6.37533V5.31246L8.50033 7.43746L10.6253 5.31246V1.41663ZM15.5837 6.37496H11.6878L9.56283 8.49996L11.6878 10.625H15.5837V6.37496ZM5.31283 6.37496H1.41699V10.625H5.31283L7.43783 8.49996L5.31283 6.37496ZM8.50033 9.56246L6.37533 11.6875V15.5833H10.6253V11.6875L8.50033 9.56246Z" fill="white"/>
</svg>
