<svg xmlns="http://www.w3.org/2000/svg" width="40" height="40" viewBox="0 0 40 40" fill="none">
    <path d="M16.033 4.63416C22.4219 4.63416 27.601 9.81334 27.601 16.2022C27.601 18.9656 26.632 21.5026 25.0153 23.4921L32.835 31.3119C33.3024 31.7793 33.3024 32.5368 32.835 33.0042C32.4103 33.4291 31.7454 33.4677 31.2769 33.12L31.1427 33.0042L23.3229 25.1845C21.3334 26.8012 18.7964 27.7702 16.033 27.7702C9.64415 27.7702 4.46497 22.5911 4.46497 16.2022C4.46497 9.81334 9.64415 4.63416 16.033 4.63416ZM16.033 7.02754C10.966 7.02754 6.85835 11.1352 6.85835 16.2022C6.85835 21.2691 10.966 25.3768 16.033 25.3768C21.0999 25.3768 25.2076 21.2691 25.2076 16.2022C25.2076 11.1352 21.0999 7.02754 16.033 7.02754Z" fill="#575757" />
</svg>
