<svg width="43" height="45" viewBox="0 0 43 45" fill="none" xmlns="http://www.w3.org/2000/svg">
<g clip-path="url(#clip0_56_199)" filter="url(#filter0_d_56_199)">
<g filter="url(#filter1_d_56_199)">
<path d="M6.8623 2.60669C5.75774 2.60669 4.8623 3.50212 4.8623 4.60669C4.8623 5.71126 5.75774 6.60669 6.8623 6.60669H9.30075L9.91187 9.05117C9.91829 9.07944 9.9253 9.10748 9.9329 9.13527L12.6474 19.9931L10.8622 21.7783C8.34235 24.2981 10.127 28.6067 13.6906 28.6067H30.8622C31.9668 28.6067 32.8622 27.7113 32.8622 26.6067C32.8622 25.5021 31.9668 24.6067 30.8622 24.6067L13.6906 24.6067L15.6906 22.6067H28.8623C29.6198 22.6067 30.3124 22.1787 30.6512 21.5011L36.6512 9.50112C36.9611 8.88114 36.928 8.14486 36.5636 7.55523C36.1992 6.96559 35.5555 6.60669 34.8623 6.60669H13.4239L12.8026 4.12162C12.58 3.23128 11.78 2.60669 10.8623 2.60669H6.8623Z" fill="#EFEEEE"/>
<path d="M32.8623 33.6067C32.8623 35.2635 31.5192 36.6067 29.8623 36.6067C28.2055 36.6067 26.8623 35.2635 26.8623 33.6067C26.8623 31.9498 28.2055 30.6067 29.8623 30.6067C31.5192 30.6067 32.8623 31.9498 32.8623 33.6067Z" fill="#EFEEEE"/>
<path d="M13.8623 36.6067C15.5192 36.6067 16.8623 35.2635 16.8623 33.6067C16.8623 31.9498 15.5192 30.6067 13.8623 30.6067C12.2055 30.6067 10.8623 31.9498 10.8623 33.6067C10.8623 35.2635 12.2055 36.6067 13.8623 36.6067Z" fill="#EFEEEE"/>
</g>
</g>
<defs>
<filter id="filter0_d_56_199" x="-1.1377" y="0.606689" width="48" height="48" filterUnits="userSpaceOnUse" color-interpolation-filters="sRGB">
<feFlood flood-opacity="0" result="BackgroundImageFix"/>
<feColorMatrix in="SourceAlpha" type="matrix" values="0 0 0 0 0 0 0 0 0 0 0 0 0 0 0 0 0 0 127 0" result="hardAlpha"/>
<feOffset dx="2" dy="4"/>
<feGaussianBlur stdDeviation="2"/>
<feComposite in2="hardAlpha" operator="out"/>
<feColorMatrix type="matrix" values="0 0 0 0 0 0 0 0 0 0 0 0 0 0 0 0 0 0 0.25 0"/>
<feBlend mode="normal" in2="BackgroundImageFix" result="effect1_dropShadow_56_199"/>
<feBlend mode="normal" in="SourceGraphic" in2="effect1_dropShadow_56_199" result="shape"/>
</filter>
<filter id="filter1_d_56_199" x="2.8623" y="2.60669" width="40" height="42" filterUnits="userSpaceOnUse" color-interpolation-filters="sRGB">
<feFlood flood-opacity="0" result="BackgroundImageFix"/>
<feColorMatrix in="SourceAlpha" type="matrix" values="0 0 0 0 0 0 0 0 0 0 0 0 0 0 0 0 0 0 127 0" result="hardAlpha"/>
<feOffset dx="2" dy="4"/>
<feGaussianBlur stdDeviation="2"/>
<feComposite in2="hardAlpha" operator="out"/>
<feColorMatrix type="matrix" values="0 0 0 0 0 0 0 0 0 0 0 0 0 0 0 0 0 0 0.25 0"/>
<feBlend mode="normal" in2="BackgroundImageFix" result="effect1_dropShadow_56_199"/>
<feBlend mode="normal" in="SourceGraphic" in2="effect1_dropShadow_56_199" result="shape"/>
</filter>
<clipPath id="clip0_56_199">
<rect width="40" height="40" fill="white" transform="translate(0.862305 0.606689)"/>
</clipPath>
</defs>
</svg>
